<?xml version="1.0" encoding="UTF-8"?>
<!DOCTYPE svg PUBLIC "-//W3C//DTD SVG 1.1//EN" "http://www.w3.org/Graphics/SVG/1.1/DTD/svg11.dtd">
<!-- Creator: CorelDRAW -->
<svg xmlns="http://www.w3.org/2000/svg" xml:space="preserve" width="4.7528mm" height="4.7528mm" version="1.1" style="shape-rendering:geometricPrecision; text-rendering:geometricPrecision; image-rendering:optimizeQuality; fill-rule:evenodd; clip-rule:evenodd"
viewBox="0 0 25.09 25.09"
 xmlns:xlink="http://www.w3.org/1999/xlink"
 xmlns:xodm="http://www.corel.com/coreldraw/odm/2003">
 <defs>
  <style type="text/css">
   <![CDATA[
    .fil0 {fill:black;fill-rule:nonzero}
   ]]>
  </style>
 </defs>
 <g id="Layer_x0020_1">
  <metadata id="CorelCorpID_0Corel-Layer"/>
  <path class="fil0" d="M12.57 25.09c-3.52,0 -6.49,-1.22 -8.92,-3.65 -2.43,-2.43 -3.65,-5.41 -3.65,-8.92 0,-3.21 1.05,-6 3.14,-8.36 2.09,-2.36 4.77,-3.74 8.03,-4.14 0.3,-0.05 0.57,-0.01 0.8,0.12 0.23,0.13 0.42,0.3 0.56,0.51 0.14,0.21 0.22,0.45 0.23,0.73 0.01,0.28 -0.08,0.55 -0.26,0.8 -0.4,0.6 -0.69,1.25 -0.89,1.92 -0.2,0.68 -0.3,1.39 -0.3,2.13 0,2.1 0.73,3.88 2.2,5.34 1.47,1.47 3.25,2.2 5.34,2.2 0.72,0 1.44,-0.1 2.15,-0.31 0.71,-0.21 1.34,-0.5 1.9,-0.87 0.26,-0.16 0.52,-0.24 0.79,-0.23 0.27,0.01 0.51,0.08 0.72,0.19 0.23,0.12 0.41,0.29 0.54,0.52 0.13,0.23 0.17,0.51 0.12,0.84 -0.33,3.21 -1.69,5.88 -4.1,8 -2.41,2.12 -5.21,3.18 -8.4,3.18zm0 -2.79c2.05,0 3.89,-0.56 5.52,-1.69 1.63,-1.13 2.82,-2.6 3.56,-4.42 -0.47,0.12 -0.93,0.21 -1.4,0.28 -0.47,0.07 -0.93,0.11 -1.4,0.11 -2.86,0 -5.3,-1.01 -7.32,-3.02 -2.01,-2.01 -3.02,-4.45 -3.02,-7.32 0,-0.47 0.03,-0.93 0.11,-1.4 0.07,-0.47 0.16,-0.93 0.28,-1.4 -1.82,0.74 -3.29,1.93 -4.42,3.56 -1.13,1.63 -1.69,3.47 -1.69,5.52 0,2.7 0.95,5.01 2.86,6.91 1.91,1.91 4.21,2.86 6.91,2.86zm-0.35 -9.43z"/>
 </g>
</svg>
