<?xml version="1.0" encoding="UTF-8"?>
<!DOCTYPE svg PUBLIC "-//W3C//DTD SVG 1.1//EN" "http://www.w3.org/Graphics/SVG/1.1/DTD/svg11.dtd">
<!-- Creator: CorelDRAW -->
<svg xmlns="http://www.w3.org/2000/svg" xml:space="preserve" width="198.443mm" height="40.6172mm" version="1.1" style="shape-rendering:geometricPrecision; text-rendering:geometricPrecision; image-rendering:optimizeQuality; fill-rule:evenodd; clip-rule:evenodd"
viewBox="0 0 4992.57 1021.88"
 xmlns:xlink="http://www.w3.org/1999/xlink"
 xmlns:xodm="http://www.corel.com/coreldraw/odm/2003">
 <defs>
  <style type="text/css">
   <![CDATA[
    .fil1 {fill:none;fill-rule:nonzero}
    .fil2 {fill:#FEFEFE}
    .fil0 {fill:#FEFEFE;fill-rule:nonzero}
   ]]>
  </style>
 </defs>
 <g id="Layer_x0020_1">
  <metadata id="CorelCorpID_0Corel-Layer"/>
  <g id="_1924448903440">
   <g>
    <path class="fil0" d="M1220.34 700.17c-47.86,0 -86.24,-14.6 -115.14,-43.82 -28.91,-29.21 -43.36,-68.37 -43.36,-117.47l0 -345.91c0,-48.47 14.45,-87.32 43.36,-116.54 28.89,-29.21 67.28,-43.82 115.14,-43.82 48.49,0 87.17,14.45 116.07,43.35 28.91,28.89 43.36,67.9 43.36,117l0 15.86c0,6.21 -3.11,9.32 -9.33,9.32l-48.47 2.8c-6.22,0 -9.33,-3.11 -9.33,-9.32l0 -23.31c0,-29.21 -8.39,-52.84 -25.17,-70.86 -16.78,-18.02 -39.16,-27.04 -67.13,-27.04 -27.34,0 -49.57,9.02 -66.67,27.04 -17.09,18.03 -25.64,41.65 -25.64,70.86l0 356.16c0,29.21 8.55,52.83 25.64,70.86 17.1,18.03 39.32,27.04 66.67,27.04 27.97,0 50.35,-9.01 67.13,-27.04 16.78,-18.03 25.17,-41.65 25.17,-70.86l0 -23.31c0,-6.21 3.1,-9.32 9.33,-9.32l48.47 2.8c6.22,0 9.33,3.11 9.33,9.32l0 14.92c0,49.1 -14.6,88.26 -43.82,117.47 -29.21,29.21 -67.76,43.82 -115.61,43.82zm400.9 -486.68c43.52,0 78.32,14.14 104.43,42.43 26.11,28.28 39.16,66.04 39.16,113.28l0 314.19c0,6.22 -3.11,9.33 -9.33,9.33l-47.55 0c-6.21,0 -9.32,-3.1 -9.32,-9.33l0 -27.97c0,-1.24 -0.47,-2.02 -1.4,-2.32 -0.94,-0.32 -2.03,0.15 -3.27,1.4 -22.99,30.45 -57.49,45.68 -103.49,45.68 -34.18,0 -63.86,-9.79 -89.03,-29.37 -25.17,-19.58 -37.76,-54.22 -37.76,-103.95 0,-52.84 15.23,-91.53 45.68,-116.08 30.46,-24.56 70.55,-36.82 120.27,-36.82l65.27 0c2.49,0 3.73,-1.24 3.73,-3.73l0 -36.36c0,-31.08 -7.15,-55.94 -21.45,-74.58 -14.29,-18.66 -33.56,-27.97 -57.8,-27.97 -18.64,0 -34.66,6.21 -48.01,18.65 -13.37,12.43 -21.3,28.28 -23.78,47.55 0,6.21 -3.11,9.33 -9.33,9.33l-52.21 -0.94c-3.12,0 -5.44,-0.94 -6.99,-2.8 -1.55,-1.86 -2.03,-4.04 -1.4,-6.53 3.1,-36.67 18.03,-66.35 44.75,-89.03 26.73,-22.7 59.66,-34.04 98.82,-34.04zm-16.78 428.88c25.49,0 47.55,-8.24 66.2,-24.71 18.64,-16.46 27.97,-39.31 27.97,-68.53l0 -78.32c0,-2.49 -1.25,-3.72 -3.73,-3.72l-66.19 0c-29.84,0 -53.46,7.92 -70.86,23.78 -17.4,15.84 -26.11,39.31 -26.11,70.39 0,27.35 6.68,47.7 20.05,61.07 13.36,13.36 30.92,20.04 52.67,20.04zm423.29 -426.08c15.54,0 28.89,3.42 40.08,10.25 4.36,2.49 5.91,6.53 4.67,12.12l-11.19 48.49c-0.63,5.59 -4.35,7.45 -11.19,5.59 -7.47,-3.73 -16.78,-5.59 -27.97,-5.59 -4.98,0 -8.7,0.31 -11.19,0.94 -22.38,1.23 -40.71,12.89 -55.01,34.96 -14.29,22.06 -21.44,48.95 -21.44,80.64l0 279.7c0,6.22 -3.1,9.33 -9.33,9.33l-47.55 0c-6.21,0 -9.32,-3.1 -9.32,-9.33l0 -453.12c0,-6.21 3.11,-9.33 9.32,-9.33l47.55 0c6.22,0 9.33,3.11 9.33,9.33l0 55.94c0,1.87 0.46,2.8 1.4,2.8 0.94,0 2.02,-0.62 3.26,-1.86 18.03,-47.24 47.55,-70.86 88.58,-70.86zm278.77 44.75c0,6.22 -3.11,9.33 -9.32,9.33l-70.86 0c-2.49,0 -3.73,1.25 -3.73,3.73l0 285.3c0,28.59 4.98,48.32 14.92,59.2 9.94,10.88 25.17,16 45.69,15.38l9.32 0c6.22,0 9.33,3.11 9.33,9.33l0 40.08c0,6.22 -3.1,9.33 -9.33,9.33l-23.3 0c-36.68,0 -64.48,-7.93 -83.45,-23.78 -18.96,-15.84 -28.43,-45.84 -28.43,-89.97l0 -304.88c0,-2.49 -1.24,-3.73 -3.73,-3.73l-36.36 0c-6.21,0 -9.33,-3.1 -9.33,-9.33l0 -30.77c0,-6.21 3.12,-9.33 9.33,-9.33l36.36 0c2.49,0 3.73,-1.24 3.73,-3.72l0 -104.43c0,-6.21 3.11,-9.33 9.32,-9.33l46.62 0c6.21,0 9.32,3.12 9.32,9.33l0 104.43c0,2.49 1.25,3.72 3.73,3.72l70.86 0c6.21,0 9.32,3.11 9.32,9.33l0 30.77zm220.96 -47.55c43.52,0 78.31,14.14 104.42,42.43 26.11,28.28 39.16,66.04 39.16,113.28l0 314.19c0,6.22 -3.11,9.33 -9.33,9.33l-47.55 0c-6.21,0 -9.32,-3.1 -9.32,-9.33l0 -27.97c0,-1.24 -0.47,-2.02 -1.4,-2.32 -0.94,-0.32 -2.03,0.15 -3.27,1.4 -22.99,30.45 -57.49,45.68 -103.49,45.68 -34.18,0 -63.86,-9.79 -89.03,-29.37 -25.17,-19.58 -37.76,-54.22 -37.76,-103.95 0,-52.84 15.23,-91.53 45.68,-116.08 30.46,-24.56 70.55,-36.82 120.27,-36.82l65.27 0c2.49,0 3.73,-1.24 3.73,-3.73l0 -36.36c0,-31.08 -7.15,-55.94 -21.45,-74.58 -14.29,-18.66 -33.56,-27.97 -57.8,-27.97 -18.64,0 -34.65,6.21 -48.01,18.65 -13.37,12.43 -21.3,28.28 -23.78,47.55 0,6.21 -3.11,9.33 -9.33,9.33l-52.21 -0.94c-3.12,0 -5.44,-0.94 -6.99,-2.8 -1.55,-1.86 -2.03,-4.04 -1.4,-6.53 3.1,-36.67 18.03,-66.35 44.75,-89.03 26.73,-22.7 59.66,-34.04 98.82,-34.04zm-16.78 428.88c25.49,0 47.55,-8.24 66.2,-24.71 18.65,-16.46 27.97,-39.31 27.97,-68.53l0 -78.32c0,-2.49 -1.25,-3.72 -3.73,-3.72l-66.19 0c-29.84,0 -53.46,7.92 -70.86,23.78 -17.4,15.84 -26.11,39.31 -26.11,70.39 0,27.35 6.68,47.7 20.05,61.07 13.36,13.36 30.92,20.04 52.67,20.04zm664.75 -592.97c0,-6.22 3.1,-9.33 9.33,-9.33l47.55 0c6.21,0 9.32,3.1 9.32,9.33l0 633.99c0,6.22 -3.11,9.33 -9.32,9.33l-47.55 0c-6.22,0 -9.33,-3.1 -9.33,-9.33l0 -20.5c0,-1.25 -0.46,-2.18 -1.4,-2.8 -0.94,-0.63 -2.02,-0.32 -3.26,0.93 -23.62,26.11 -53.45,39.16 -89.5,39.16 -39.78,0 -71.48,-13.2 -95.1,-39.62 -23.62,-26.42 -35.44,-60.75 -35.44,-103.03l0 -201.39c0,-43.51 11.81,-78.16 35.44,-103.95 23.62,-25.8 55.31,-38.7 95.1,-38.7 36.67,0 66.5,13.37 89.5,40.1 1.25,1.24 2.32,1.55 3.26,0.94 0.94,-0.63 1.4,-1.56 1.4,-2.8l0 -202.32zm-78.32 592.97c23,0 41.8,-8.24 56.4,-24.71 14.61,-16.46 21.91,-37.76 21.91,-63.86l0 -193c0,-26.74 -7.3,-48.33 -21.91,-64.8 -14.6,-16.47 -33.4,-24.7 -56.4,-24.7 -23.62,0 -43.05,8.23 -58.28,24.7 -15.23,16.47 -22.84,38.07 -22.84,64.8l0 193c0,26.1 7.61,47.39 22.84,63.86 15.23,16.47 34.65,24.71 58.28,24.71zm298.35 -507.2c-15.54,0 -28.12,-4.97 -37.76,-14.92 -9.64,-9.95 -14.45,-22.38 -14.45,-37.29 0,-15.54 4.81,-28.12 14.45,-37.76 9.64,-9.64 22.22,-14.46 37.76,-14.46 14.92,0 27.2,4.82 36.83,14.46 9.64,9.64 14.45,22.22 14.45,37.76 0,14.91 -4.81,27.34 -14.45,37.29 -9.64,9.95 -21.91,14.92 -36.83,14.92zm-23.3 557.54c-6.22,0 -9.33,-3.1 -9.33,-9.33l0 -453.12c0,-6.21 3.1,-9.33 9.33,-9.33l47.55 0c6.21,0 9.32,3.11 9.32,9.33l0 453.12c0,6.22 -3.11,9.33 -9.32,9.33l-47.55 0zm516.51 7.45c-47.86,0 -86.24,-14.6 -115.14,-43.82 -28.91,-29.21 -43.35,-68.37 -43.35,-117.47l0 -345.91c0,-48.47 14.45,-87.32 43.35,-116.54 28.89,-29.21 67.28,-43.82 115.14,-43.82 48.49,0 87.17,14.45 116.08,43.35 28.9,28.89 43.35,67.9 43.35,117l0 15.86c0,6.21 -3.1,9.32 -9.33,9.32l-48.48 2.8c-6.22,0 -9.33,-3.11 -9.33,-9.32l0 -23.31c0,-29.21 -8.39,-52.84 -25.17,-70.86 -16.78,-18.02 -39.16,-27.04 -67.13,-27.04 -27.34,0 -49.56,9.02 -66.67,27.04 -17.09,18.03 -25.63,41.65 -25.63,70.86l0 356.16c0,29.21 8.54,52.83 25.63,70.86 17.1,18.03 39.32,27.04 66.67,27.04 27.97,0 50.35,-9.01 67.13,-27.04 16.78,-18.03 25.17,-41.65 25.17,-70.86l0 -23.31c0,-6.21 3.1,-9.32 9.33,-9.32l48.48 2.8c6.22,0 9.33,3.11 9.33,9.32l0 14.92c0,49.1 -14.6,88.26 -43.82,117.47 -29.21,29.21 -67.76,43.82 -115.61,43.82zm266.64 -7.45c-6.21,0 -9.32,-3.1 -9.32,-9.33l0 -633.99c0,-6.22 3.1,-9.33 9.32,-9.33l47.55 0c6.22,0 9.33,3.1 9.33,9.33l0 633.99c0,6.22 -3.1,9.33 -9.33,9.33l-47.55 0zm303.01 -479.23c43.52,0 78.32,14.14 104.42,42.43 26.11,28.28 39.16,66.04 39.16,113.28l0 314.19c0,6.22 -3.1,9.33 -9.33,9.33l-47.55 0c-6.21,0 -9.32,-3.1 -9.32,-9.33l0 -27.97c0,-1.24 -0.47,-2.02 -1.4,-2.32 -0.94,-0.32 -2.03,0.15 -3.27,1.4 -22.99,30.45 -57.49,45.68 -103.49,45.68 -34.18,0 -63.86,-9.79 -89.03,-29.37 -25.17,-19.58 -37.76,-54.22 -37.76,-103.95 0,-52.84 15.23,-91.53 45.68,-116.08 30.46,-24.56 70.55,-36.82 120.27,-36.82l65.27 0c2.49,0 3.73,-1.24 3.73,-3.73l0 -36.36c0,-31.08 -7.15,-55.94 -21.45,-74.58 -14.3,-18.66 -33.56,-27.97 -57.8,-27.97 -18.64,0 -34.65,6.21 -48.01,18.65 -13.37,12.43 -21.3,28.28 -23.77,47.55 0,6.21 -3.12,9.33 -9.33,9.33l-52.21 -0.94c-3.12,0 -5.44,-0.94 -6.99,-2.8 -1.55,-1.86 -2.03,-4.04 -1.4,-6.53 3.1,-36.67 18.03,-66.35 44.75,-89.03 26.73,-22.7 59.66,-34.04 98.82,-34.04zm-16.78 428.88c25.49,0 47.55,-8.24 66.2,-24.71 18.65,-16.46 27.97,-39.31 27.97,-68.53l0 -78.32c0,-2.49 -1.25,-3.72 -3.73,-3.72l-66.19 0c-29.84,0 -53.46,7.92 -70.86,23.78 -17.4,15.84 -26.11,39.31 -26.11,70.39 0,27.35 6.68,47.7 20.05,61.07 13.36,13.36 30.92,20.04 52.67,20.04zm431.68 -427.95c37.91,0 67.28,13.05 88.11,39.16 20.82,26.11 31.23,62.47 31.23,109.08l0 320.72c0,6.22 -3.1,9.33 -9.33,9.33l-47.55 0c-6.21,0 -9.32,-3.1 -9.32,-9.33l0 -315.13c0,-30.46 -6.68,-54.08 -20.05,-70.86 -13.36,-16.78 -31.85,-25.17 -55.47,-25.17 -24.86,0 -44.29,9.02 -58.28,27.05 -13.98,18.02 -20.98,42.57 -20.98,73.65l0 310.47c0,6.22 -3.1,9.33 -9.33,9.33l-47.55 0c-6.21,0 -9.32,-3.1 -9.32,-9.33l0 -453.12c0,-6.21 3.11,-9.33 9.32,-9.33l47.55 0c6.22,0 9.33,3.11 9.33,9.33l0 29.84c0,1.24 0.62,2.17 1.86,2.8 1.25,0.62 2.18,0 2.8,-1.87 11.19,-15.54 25.33,-27.19 42.43,-34.96 17.09,-7.76 35.27,-11.65 54.54,-11.65z"/>
    <path class="fil0" d="M1446.21 991.13c-14.25,0 -25.68,-4.35 -34.29,-13.05 -8.61,-8.7 -12.91,-20.36 -12.91,-34.99l0 -103.01c0,-14.44 4.3,-26.01 12.91,-34.71 8.6,-8.7 20.04,-13.05 34.29,-13.05 14.44,0 25.96,4.3 34.57,12.91 8.61,8.6 12.91,20.22 12.91,34.84l0 4.72c0,1.85 -0.93,2.77 -2.78,2.77l-14.44 0.84c-1.85,0 -2.78,-0.93 -2.78,-2.78l0 -6.94c0,-8.7 -2.5,-15.73 -7.49,-21.1 -5,-5.36 -11.66,-8.05 -19.99,-8.05 -8.14,0 -14.76,2.69 -19.85,8.05 -5.09,5.37 -7.64,12.4 -7.64,21.1l0 106.07c0,8.7 2.55,15.73 7.64,21.1 5.09,5.37 11.71,8.05 19.85,8.05 8.33,0 14.99,-2.68 19.99,-8.05 5,-5.37 7.49,-12.4 7.49,-21.1l0 -6.94c0,-1.85 0.93,-2.78 2.78,-2.78l14.44 0.83c1.85,0 2.78,0.93 2.78,2.78l0 4.44c0,14.62 -4.35,26.29 -13.05,34.99 -8.7,8.7 -20.18,13.05 -34.43,13.05zm79.41 -2.22c-1.85,0 -2.77,-0.92 -2.77,-2.78l0 -188.81c0,-1.85 0.92,-2.78 2.77,-2.78l14.16 0c1.85,0 2.78,0.93 2.78,2.78l0 188.81c0,1.85 -0.93,2.78 -2.78,2.78l-14.16 0zm90.24 -142.72c12.96,0 23.32,4.21 31.1,12.63 7.78,8.42 11.66,19.67 11.66,33.74l0 93.57c0,1.85 -0.92,2.78 -2.78,2.78l-14.16 0c-1.85,0 -2.78,-0.92 -2.78,-2.78l0 -8.33c0,-0.37 -0.14,-0.6 -0.42,-0.69 -0.28,-0.09 -0.6,0.05 -0.98,0.42 -6.85,9.07 -17.12,13.6 -30.82,13.6 -10.18,0 -19.02,-2.92 -26.51,-8.75 -7.5,-5.83 -11.25,-16.15 -11.25,-30.96 0,-15.73 4.54,-27.26 13.6,-34.57 9.07,-7.31 21.01,-10.97 35.82,-10.97l19.44 0c0.74,0 1.11,-0.37 1.11,-1.11l0 -10.83c0,-9.25 -2.13,-16.66 -6.39,-22.21 -4.26,-5.56 -10,-8.33 -17.21,-8.33 -5.55,0 -10.32,1.85 -14.3,5.55 -3.98,3.7 -6.34,8.42 -7.08,14.16 0,1.85 -0.93,2.78 -2.78,2.78l-15.55 -0.28c-0.93,0 -1.62,-0.28 -2.08,-0.83 -0.46,-0.55 -0.6,-1.2 -0.42,-1.94 0.93,-10.92 5.37,-19.76 13.33,-26.51 7.96,-6.76 17.77,-10.14 29.43,-10.14zm-5 127.73c7.59,0 14.16,-2.45 19.72,-7.36 5.55,-4.9 8.33,-11.71 8.33,-20.41l0 -23.32c0,-0.74 -0.37,-1.11 -1.11,-1.11l-19.71 0c-8.89,0 -15.92,2.36 -21.1,7.08 -5.18,4.72 -7.78,11.71 -7.78,20.96 0,8.15 1.99,14.21 5.97,18.19 3.98,3.98 9.21,5.97 15.68,5.97zm128.56 -127.45c11.29,0 20.04,3.89 26.24,11.66 6.2,7.78 9.3,18.6 9.3,32.49l0 95.51c0,1.85 -0.92,2.78 -2.78,2.78l-14.16 0c-1.85,0 -2.78,-0.92 -2.78,-2.78l0 -93.85c0,-9.07 -1.99,-16.11 -5.97,-21.1 -3.98,-5 -9.48,-7.5 -16.52,-7.5 -7.4,0 -13.19,2.69 -17.35,8.05 -4.16,5.37 -6.25,12.68 -6.25,21.93l0 92.46c0,1.85 -0.92,2.78 -2.78,2.78l-14.16 0c-1.85,0 -2.78,-0.92 -2.78,-2.78l0 -134.94c0,-1.85 0.92,-2.78 2.78,-2.78l14.16 0c1.85,0 2.78,0.93 2.78,2.78l0 8.89c0,0.37 0.18,0.65 0.55,0.83 0.37,0.18 0.65,0 0.84,-0.56 3.33,-4.63 7.54,-8.1 12.63,-10.41 5.09,-2.31 10.5,-3.47 16.24,-3.47zm204.08 -49.15c0,-1.85 0.93,-2.78 2.78,-2.78l13.89 0c1.85,0 2.78,0.93 2.78,2.78l0 188.81c0,1.85 -0.93,2.78 -2.78,2.78l-16.38 0c-1.48,0 -2.5,-0.74 -3.05,-2.22l-54.14 -143.55c-0.18,-0.56 -0.46,-0.79 -0.83,-0.7 -0.37,0.09 -0.55,0.42 -0.55,0.97l0.28 142.72c0,1.85 -0.93,2.78 -2.78,2.78l-14.16 0c-1.85,0 -2.78,-0.92 -2.78,-2.78l0 -188.81c0,-1.85 0.93,-2.78 2.78,-2.78l16.1 0c1.48,0 2.5,0.74 3.06,2.22l54.42 143.83c0.19,0.55 0.47,0.79 0.83,0.69 0.37,-0.09 0.56,-0.42 0.56,-0.97l0 -142.99zm120.23 53.86c0,-1.85 0.93,-2.78 2.78,-2.78l14.16 0c1.85,0 2.78,0.93 2.78,2.78l0 134.94c0,1.85 -0.93,2.78 -2.78,2.78l-14.16 0c-1.85,0 -2.78,-0.92 -2.78,-2.78l0 -9.44c0,-0.56 -0.14,-0.83 -0.42,-0.83 -0.28,0 -0.6,0.18 -0.97,0.55 -5.74,9.63 -14.99,14.44 -27.77,14.44 -11.11,0 -19.95,-3.38 -26.52,-10.14 -6.57,-6.76 -9.86,-16.98 -9.86,-30.68l0 -98.85c0,-1.85 0.93,-2.78 2.78,-2.78l14.16 0c1.85,0 2.78,0.93 2.78,2.78l0 94.41c0,9.25 1.9,16.24 5.69,20.96 3.79,4.72 9.3,7.08 16.52,7.08 7.4,0 13.19,-2.68 17.35,-8.05 4.17,-5.37 6.25,-12.68 6.25,-21.94l0 -92.46zm94.13 139.94c-13.33,0 -23.92,-3.89 -31.79,-11.66 -7.87,-7.77 -11.8,-18.05 -11.8,-30.82l0 -59.7c0,-12.58 3.98,-22.86 11.94,-30.82 7.96,-7.96 18.51,-11.94 31.65,-11.94 13.33,0 23.97,3.98 31.93,11.94 7.96,7.96 11.94,18.24 11.94,30.82l0 59.7c0,12.77 -3.98,23.05 -11.94,30.82 -7.96,7.77 -18.6,11.66 -31.93,11.66zm0 -17.49c7.03,0 12.82,-2.41 17.36,-7.22 4.53,-4.82 6.8,-11.2 6.8,-19.16l0 -57.2c0,-7.96 -2.27,-14.39 -6.8,-19.3 -4.54,-4.91 -10.32,-7.36 -17.36,-7.36 -7.03,0 -12.77,2.45 -17.21,7.36 -4.44,4.91 -6.66,11.34 -6.66,19.3l0 57.2c0,7.96 2.22,14.34 6.66,19.16 4.44,4.81 10.18,7.22 17.21,7.22zm98.29 15.27c-1.67,0 -2.68,-0.83 -3.06,-2.5l-34.43 -134.94 -0.28 -1.11c0,-1.3 0.83,-1.94 2.5,-1.94l16.1 0c1.67,0 2.68,0.83 3.05,2.5l23.88 105.23c0.19,0.56 0.37,0.83 0.56,0.83 0.18,0 0.37,-0.27 0.55,-0.83l23.6 -105.23c0.37,-1.67 1.39,-2.5 3.05,-2.5l16.11 0.28c0.92,0 1.62,0.28 2.08,0.83 0.46,0.56 0.51,1.3 0.14,2.22l-34.15 134.66c-0.18,1.67 -1.21,2.5 -3.05,2.5l-16.66 0zm116.34 2.22c-13.33,0 -23.92,-3.89 -31.79,-11.66 -7.87,-7.77 -11.8,-18.05 -11.8,-30.82l0 -59.7c0,-12.58 3.98,-22.86 11.94,-30.82 7.96,-7.96 18.51,-11.94 31.65,-11.94 13.33,0 23.97,3.98 31.93,11.94 7.96,7.96 11.94,18.24 11.94,30.82l0 59.7c0,12.77 -3.98,23.05 -11.94,30.82 -7.96,7.77 -18.6,11.66 -31.93,11.66zm0 -17.49c7.03,0 12.82,-2.41 17.35,-7.22 4.54,-4.82 6.8,-11.2 6.8,-19.16l0 -57.2c0,-7.96 -2.27,-14.39 -6.8,-19.3 -4.54,-4.91 -10.32,-7.36 -17.35,-7.36 -7.03,0 -12.77,2.45 -17.21,7.36 -4.44,4.91 -6.66,11.34 -6.66,19.3l0 57.2c0,7.96 2.22,14.34 6.66,19.16 4.44,4.81 10.18,7.22 17.21,7.22zm171.04 17.49c-13.7,0 -24.8,-4.54 -33.32,-13.6 -8.52,-9.07 -12.77,-20.92 -12.77,-35.54l0 -6.38c0,-1.85 0.92,-2.78 2.78,-2.78l13.6 0c1.85,0 2.78,0.93 2.78,2.78l0 5.55c0,9.81 2.5,17.73 7.49,23.74 5,6.02 11.48,9.03 19.44,9.03 7.77,0 14.25,-2.87 19.44,-8.61 5.19,-5.74 7.78,-13.33 7.78,-22.77 0,-6.3 -1.25,-11.71 -3.75,-16.24 -2.5,-4.54 -5.74,-8.52 -9.72,-11.94 -3.98,-3.42 -10.6,-8.65 -19.85,-15.69 -9.26,-6.85 -16.57,-12.73 -21.94,-17.63 -5.37,-4.91 -9.76,-10.78 -13.19,-17.63 -3.43,-6.85 -5.14,-14.9 -5.14,-24.16 0,-14.44 4.16,-25.87 12.49,-34.29 8.33,-8.42 19.16,-12.63 32.49,-12.63 14.07,0 25.31,4.58 33.74,13.74 8.43,9.16 12.63,21.33 12.63,36.51l0 6.94c0,1.85 -0.92,2.78 -2.78,2.78l-13.88 0c-1.85,0 -2.78,-0.93 -2.78,-2.78l0 -7.22c0,-9.81 -2.45,-17.72 -7.36,-23.74 -4.9,-6.02 -11.43,-9.02 -19.57,-9.02 -7.4,0 -13.51,2.64 -18.33,7.91 -4.81,5.28 -7.22,12.73 -7.22,22.35 0,5.74 1.06,10.78 3.19,15.13 2.13,4.35 5.32,8.47 9.58,12.36 4.26,3.89 10.55,8.98 18.88,15.27 11.11,8.14 19.39,14.76 24.85,19.85 5.46,5.09 9.67,10.64 12.63,16.66 2.96,6.02 4.44,13.28 4.44,21.8 0,15.18 -4.35,27.35 -13.05,36.51 -8.69,9.16 -19.9,13.74 -33.59,13.74zm115.23 0c-13.33,0 -23.92,-3.89 -31.79,-11.66 -7.87,-7.77 -11.8,-18.05 -11.8,-30.82l0 -59.7c0,-12.58 3.98,-22.86 11.94,-30.82 7.96,-7.96 18.51,-11.94 31.65,-11.94 13.33,0 23.97,3.98 31.93,11.94 7.96,7.96 11.94,18.24 11.94,30.82l0 59.7c0,12.77 -3.98,23.05 -11.94,30.82 -7.96,7.77 -18.6,11.66 -31.93,11.66zm0 -17.49c7.03,0 12.82,-2.41 17.36,-7.22 4.53,-4.82 6.8,-11.2 6.8,-19.16l0 -57.2c0,-7.96 -2.27,-14.39 -6.8,-19.3 -4.54,-4.91 -10.32,-7.36 -17.36,-7.36 -7.03,0 -12.77,2.45 -17.21,7.36 -4.44,4.91 -6.66,11.34 -6.66,19.3l0 57.2c0,7.96 2.22,14.34 6.66,19.16 4.44,4.81 10.18,7.22 17.21,7.22zm75.8 15.27c-1.85,0 -2.78,-0.92 -2.78,-2.78l0 -188.81c0,-1.85 0.92,-2.78 2.78,-2.78l14.16 0c1.85,0 2.78,0.93 2.78,2.78l0 188.81c0,1.85 -0.92,2.78 -2.78,2.78l-14.16 0zm133 -65.53c0,1.85 -0.93,2.78 -2.78,2.78l-63.31 0c-0.74,0 -1.11,0.37 -1.11,1.11l0 20.27c0,7.77 2.17,14.11 6.52,19.02 4.35,4.91 10.04,7.36 17.08,7.36 5.93,0 10.97,-1.8 15.14,-5.41 4.16,-3.61 6.89,-8.28 8.19,-14.02 0.56,-1.67 1.57,-2.5 3.05,-2.5l13.88 0.56c0.74,0 1.39,0.28 1.94,0.83 0.55,0.56 0.74,1.3 0.55,2.22 -1.48,10.92 -5.97,19.57 -13.46,25.96 -7.5,6.39 -17.26,9.58 -29.29,9.58 -13.14,0 -23.64,-3.89 -31.51,-11.66 -7.87,-7.77 -11.8,-18.05 -11.8,-30.82l0 -59.97c0,-12.59 3.94,-22.82 11.8,-30.68 7.87,-7.87 18.37,-11.8 31.51,-11.8 13.33,0 23.93,3.93 31.8,11.8 7.87,7.86 11.8,18.09 11.8,30.68l0 34.71zm-43.6 -59.98c-7.03,0 -12.73,2.45 -17.08,7.36 -4.35,4.91 -6.52,11.34 -6.52,19.3l0 18.6c0,0.74 0.37,1.11 1.11,1.11l45.54 0c0.74,0 1.11,-0.37 1.11,-1.11l0 -18.6c0,-7.96 -2.22,-14.39 -6.66,-19.3 -4.44,-4.91 -10.27,-7.36 -17.49,-7.36zm123 47.76c-1.85,0 -2.78,-0.92 -2.78,-2.78l0 -11.66c0,-1.85 0.93,-2.78 2.78,-2.78l63.58 0c1.85,0 2.78,0.93 2.78,2.78l0 11.66c0,1.85 -0.92,2.78 -2.78,2.78l-63.58 0zm224.07 77.75c-1.67,0 -2.68,-0.83 -3.05,-2.5l-6.94 -34.43c0,-0.37 -0.14,-0.65 -0.42,-0.84 -0.28,-0.18 -0.6,-0.27 -0.97,-0.27l-50.26 0c-0.37,0 -0.69,0.09 -0.97,0.27 -0.28,0.19 -0.42,0.46 -0.42,0.84l-6.94 34.43c-0.18,1.67 -1.2,2.5 -3.05,2.5l-14.16 0c-0.93,0 -1.62,-0.28 -2.08,-0.83 -0.46,-0.55 -0.6,-1.3 -0.42,-2.22l41.65 -188.81c0.37,-1.67 1.39,-2.5 3.05,-2.5l16.66 0c1.85,0 2.87,0.84 3.05,2.5l42.21 188.81 0 0.55c0,1.67 -0.83,2.5 -2.5,2.5l-14.44 0zm-59.42 -55.25c0,0.74 0.28,1.11 0.83,1.11l43.87 0c0.55,0 0.83,-0.37 0.83,-1.11l-22.22 -109.12c-0.18,-0.56 -0.37,-0.83 -0.55,-0.83 -0.18,0 -0.37,0.28 -0.55,0.83l-22.22 109.12zm139.39 57.48c-14.25,0 -25.64,-4.21 -34.15,-12.63 -8.51,-8.42 -12.77,-19.67 -12.77,-33.74l0 -106.07c0,-14.07 4.26,-25.31 12.77,-33.74 8.51,-8.42 19.9,-12.63 34.15,-12.63 14.25,0 25.68,4.26 34.29,12.77 8.61,8.52 12.91,19.81 12.91,33.88l0 11.94c0,1.85 -0.93,2.78 -2.78,2.78l-14.16 0c-1.85,0 -2.78,-0.93 -2.78,-2.78l0 -12.5c0,-8.69 -2.5,-15.68 -7.5,-20.96 -5,-5.28 -11.66,-7.91 -19.99,-7.91 -8.14,0 -14.76,2.69 -19.86,8.05 -5.09,5.37 -7.63,12.31 -7.63,20.82l0 106.63c0,8.51 2.54,15.46 7.63,20.83 5.09,5.37 11.71,8.05 19.86,8.05 8.33,0 14.99,-2.64 19.99,-7.91 5,-5.28 7.5,-12.26 7.5,-20.96l0 -35.54c0,-0.74 -0.37,-1.11 -1.11,-1.11l-23.88 0c-1.85,0 -2.78,-0.93 -2.78,-2.78l0 -11.66c0,-1.85 0.93,-2.78 2.78,-2.78l41.93 0c1.85,0 2.78,0.93 2.78,2.78l0 50.81c0,14.07 -4.3,25.31 -12.91,33.74 -8.6,8.42 -20.04,12.63 -34.29,12.63zm170.76 -182.14c0,1.85 -0.92,2.78 -2.78,2.78l-64.42 0c-0.74,0 -1.11,0.37 -1.11,1.11l0 68.86c0,0.74 0.37,1.11 1.11,1.11l40.54 0c1.85,0 2.78,0.93 2.78,2.78l0 11.94c0,1.85 -0.92,2.78 -2.78,2.78l-40.54 0c-0.74,0 -1.11,0.37 -1.11,1.11l0 69.14c0,0.74 0.37,1.11 1.11,1.11l64.42 0c1.85,0 2.78,0.93 2.78,2.78l0 11.66c0,1.85 -0.92,2.78 -2.78,2.78l-82.46 0c-1.85,0 -2.78,-0.92 -2.78,-2.78l0 -188.81c0,-1.85 0.93,-2.78 2.78,-2.78l82.46 0c1.85,0 2.78,0.93 2.78,2.78l0 11.66zm68.86 182.14c-13.7,0 -24.8,-4.54 -33.32,-13.6 -8.52,-9.07 -12.78,-20.92 -12.78,-35.54l0 -6.38c0,-1.85 0.93,-2.78 2.78,-2.78l13.6 0c1.85,0 2.78,0.93 2.78,2.78l0 5.55c0,9.81 2.5,17.73 7.49,23.74 5,6.02 11.48,9.03 19.44,9.03 7.77,0 14.25,-2.87 19.44,-8.61 5.19,-5.74 7.77,-13.33 7.77,-22.77 0,-6.3 -1.25,-11.71 -3.75,-16.24 -2.5,-4.54 -5.74,-8.52 -9.72,-11.94 -3.98,-3.42 -10.6,-8.65 -19.85,-15.69 -9.26,-6.85 -16.57,-12.73 -21.94,-17.63 -5.37,-4.91 -9.76,-10.78 -13.19,-17.63 -3.43,-6.85 -5.14,-14.9 -5.14,-24.16 0,-14.44 4.16,-25.87 12.49,-34.29 8.33,-8.42 19.16,-12.63 32.49,-12.63 14.07,0 25.31,4.58 33.74,13.74 8.42,9.16 12.63,21.33 12.63,36.51l0 6.94c0,1.85 -0.92,2.78 -2.78,2.78l-13.88 0c-1.85,0 -2.78,-0.93 -2.78,-2.78l0 -7.22c0,-9.81 -2.45,-17.72 -7.36,-23.74 -4.9,-6.02 -11.43,-9.02 -19.57,-9.02 -7.4,0 -13.51,2.64 -18.33,7.91 -4.81,5.28 -7.22,12.73 -7.22,22.35 0,5.74 1.06,10.78 3.19,15.13 2.13,4.35 5.32,8.47 9.58,12.36 4.26,3.89 10.55,8.98 18.88,15.27 11.11,8.14 19.39,14.76 24.85,19.85 5.46,5.09 9.67,10.64 12.63,16.66 2.96,6.02 4.44,13.28 4.44,21.8 0,15.18 -4.35,27.35 -13.05,36.51 -8.7,9.16 -19.9,13.74 -33.59,13.74zm120.23 0c-14.25,0 -25.68,-4.35 -34.29,-13.05 -8.61,-8.7 -12.91,-20.36 -12.91,-34.99l0 -103.01c0,-14.44 4.3,-26.01 12.91,-34.71 8.61,-8.7 20.04,-13.05 34.29,-13.05 14.44,0 25.96,4.3 34.57,12.91 8.61,8.6 12.91,20.22 12.91,34.84l0 4.72c0,1.85 -0.93,2.77 -2.78,2.77l-14.44 0.84c-1.85,0 -2.78,-0.93 -2.78,-2.78l0 -6.94c0,-8.7 -2.5,-15.73 -7.5,-21.1 -5,-5.36 -11.66,-8.05 -19.99,-8.05 -8.14,0 -14.76,2.69 -19.86,8.05 -5.09,5.37 -7.63,12.4 -7.63,21.1l0 106.07c0,8.7 2.54,15.73 7.63,21.1 5.09,5.37 11.71,8.05 19.86,8.05 8.33,0 14.99,-2.68 19.99,-8.05 5,-5.37 7.5,-12.4 7.5,-21.1l0 -6.94c0,-1.85 0.92,-2.78 2.78,-2.78l14.44 0.83c1.85,0 2.78,0.93 2.78,2.78l0 4.44c0,14.62 -4.35,26.29 -13.05,34.99 -8.7,8.7 -20.18,13.05 -34.43,13.05zm84.13 -2.22c-1.85,0 -2.78,-0.92 -2.78,-2.78l0 -188.81c0,-1.85 0.92,-2.78 2.78,-2.78l14.16 0c1.85,0 2.78,0.93 2.78,2.78l0 188.81c0,1.85 -0.92,2.78 -2.78,2.78l-14.16 0zm160.76 -194.64c13.52,0 24.44,4.95 32.76,14.86 8.33,9.9 12.5,22.91 12.5,39.01 0,15.92 -4.07,28.74 -12.22,38.46 -8.14,9.72 -18.88,14.58 -32.21,14.58l-28.6 0c-0.74,0 -1.11,0.37 -1.11,1.11l0 83.85c0,1.85 -0.93,2.78 -2.78,2.78l-14.16 0c-1.85,0 -2.78,-0.92 -2.78,-2.78l0 -189.09c0,-1.85 0.93,-2.78 2.78,-2.78l45.81 0zm-2.5 90.8c8.33,0 15.09,-3.33 20.27,-10 5.18,-6.66 7.77,-15.55 7.77,-26.66 0,-11.11 -2.59,-20.04 -7.77,-26.79 -5.19,-6.76 -11.94,-10.13 -20.27,-10.13l-25.27 0c-0.74,0 -1.11,0.37 -1.11,1.11l0 71.36c0,0.74 0.37,1.11 1.11,1.11l25.27 0zm114.4 106.06c-13.33,0 -23.92,-3.89 -31.79,-11.66 -7.87,-7.77 -11.8,-18.05 -11.8,-30.82l0 -59.7c0,-12.58 3.98,-22.86 11.94,-30.82 7.96,-7.96 18.51,-11.94 31.65,-11.94 13.33,0 23.97,3.98 31.93,11.94 7.96,7.96 11.94,18.24 11.94,30.82l0 59.7c0,12.77 -3.98,23.05 -11.94,30.82 -7.96,7.77 -18.6,11.66 -31.93,11.66zm0 -17.49c7.03,0 12.82,-2.41 17.35,-7.22 4.54,-4.82 6.8,-11.2 6.8,-19.16l0 -57.2c0,-7.96 -2.27,-14.39 -6.8,-19.3 -4.54,-4.91 -10.32,-7.36 -17.35,-7.36 -7.03,0 -12.77,2.45 -17.21,7.36 -4.44,4.91 -6.66,11.34 -6.66,19.3l0 57.2c0,7.96 2.22,14.34 6.66,19.16 4.44,4.81 10.18,7.22 17.21,7.22zm124.12 -113.28c0,1.85 -0.93,2.78 -2.78,2.78l-21.1 0c-0.74,0 -1.11,0.37 -1.11,1.11l0 84.96c0,8.51 1.48,14.39 4.44,17.63 2.96,3.24 7.5,4.77 13.61,4.58l2.78 0c1.85,0 2.78,0.93 2.78,2.78l0 11.94c0,1.85 -0.92,2.78 -2.78,2.78l-6.94 0c-10.92,0 -19.2,-2.36 -24.85,-7.08 -5.65,-4.72 -8.47,-13.65 -8.47,-26.79l0 -90.79c0,-0.74 -0.37,-1.11 -1.11,-1.11l-10.83 0c-1.85,0 -2.78,-0.93 -2.78,-2.78l0 -9.16c0,-1.85 0.93,-2.78 2.78,-2.78l10.83 0c0.74,0 1.11,-0.37 1.11,-1.11l0 -31.1c0,-1.85 0.93,-2.78 2.78,-2.78l13.89 0c1.85,0 2.78,0.93 2.78,2.78l0 31.1c0,0.74 0.37,1.11 1.11,1.11l21.1 0c1.85,0 2.78,0.93 2.78,2.78l0 9.16zm108.57 63.03c0,1.85 -0.93,2.78 -2.78,2.78l-63.31 0c-0.74,0 -1.11,0.37 -1.11,1.11l0 20.27c0,7.77 2.17,14.11 6.52,19.02 4.35,4.91 10.05,7.36 17.08,7.36 5.92,0 10.97,-1.8 15.13,-5.41 4.17,-3.61 6.89,-8.28 8.19,-14.02 0.56,-1.67 1.57,-2.5 3.06,-2.5l13.88 0.56c0.74,0 1.39,0.28 1.94,0.83 0.55,0.56 0.74,1.3 0.55,2.22 -1.48,10.92 -5.97,19.57 -13.46,25.96 -7.5,6.39 -17.26,9.58 -29.29,9.58 -13.14,0 -23.65,-3.89 -31.51,-11.66 -7.87,-7.77 -11.8,-18.05 -11.8,-30.82l0 -59.97c0,-12.59 3.93,-22.82 11.8,-30.68 7.87,-7.87 18.37,-11.8 31.51,-11.8 13.33,0 23.93,3.93 31.79,11.8 7.87,7.86 11.8,18.09 11.8,30.68l0 34.71zm-43.59 -59.98c-7.03,0 -12.73,2.45 -17.08,7.36 -4.35,4.91 -6.52,11.34 -6.52,19.3l0 18.6c0,0.74 0.37,1.11 1.11,1.11l45.54 0c0.74,0 1.11,-0.37 1.11,-1.11l0 -18.6c0,-7.96 -2.22,-14.39 -6.66,-19.3 -4.44,-4.91 -10.27,-7.36 -17.49,-7.36zm122.73 -16.94c11.29,0 20.04,3.89 26.24,11.66 6.2,7.78 9.3,18.6 9.3,32.49l0 95.51c0,1.85 -0.93,2.78 -2.78,2.78l-14.16 0c-1.85,0 -2.78,-0.92 -2.78,-2.78l0 -93.85c0,-9.07 -1.99,-16.11 -5.97,-21.1 -3.98,-5 -9.48,-7.5 -16.52,-7.5 -7.4,0 -13.19,2.69 -17.35,8.05 -4.17,5.37 -6.25,12.68 -6.25,21.93l0 92.46c0,1.85 -0.93,2.78 -2.78,2.78l-14.16 0c-1.85,0 -2.78,-0.92 -2.78,-2.78l0 -134.94c0,-1.85 0.93,-2.78 2.78,-2.78l14.16 0c1.85,0 2.78,0.93 2.78,2.78l0 8.89c0,0.37 0.18,0.65 0.55,0.83 0.37,0.18 0.65,0 0.83,-0.56 3.33,-4.63 7.54,-8.1 12.63,-10.41 5.09,-2.31 10.51,-3.47 16.25,-3.47zm62.75 142.44c-1.85,0 -2.78,-0.92 -2.78,-2.78l0 -13.33c0,-1.3 0.28,-2.5 0.83,-3.61l56.92 -101.35c0.18,-0.37 0.23,-0.69 0.14,-0.97 -0.09,-0.28 -0.32,-0.42 -0.69,-0.42l-53.31 0c-1.85,0 -2.78,-0.93 -2.78,-2.78l0 -12.49c0,-1.85 0.93,-2.78 2.78,-2.78l74.97 0c1.85,0 2.78,0.93 2.78,2.78l0 13.33c0,1.3 -0.28,2.5 -0.83,3.61l-57.48 101.34c-0.18,0.37 -0.18,0.7 0,0.98 0.18,0.27 0.46,0.42 0.83,0.42l55.26 0c1.85,0 2.77,0.93 2.77,2.78l0 12.49c0,1.85 -0.92,2.78 -2.77,2.78l-76.64 0zm146.33 -142.72c12.96,0 23.32,4.21 31.1,12.63 7.77,8.42 11.66,19.67 11.66,33.74l0 93.57c0,1.85 -0.93,2.78 -2.78,2.78l-14.16 0c-1.85,0 -2.78,-0.92 -2.78,-2.78l0 -8.33c0,-0.37 -0.14,-0.6 -0.42,-0.69 -0.28,-0.09 -0.6,0.05 -0.97,0.42 -6.85,9.07 -17.12,13.6 -30.82,13.6 -10.18,0 -19.02,-2.92 -26.51,-8.75 -7.5,-5.83 -11.25,-16.15 -11.25,-30.96 0,-15.73 4.54,-27.26 13.6,-34.57 9.07,-7.31 21.01,-10.97 35.82,-10.97l19.44 0c0.74,0 1.11,-0.37 1.11,-1.11l0 -10.83c0,-9.25 -2.13,-16.66 -6.39,-22.21 -4.26,-5.56 -10,-8.33 -17.21,-8.33 -5.55,0 -10.32,1.85 -14.3,5.55 -3.98,3.7 -6.34,8.42 -7.08,14.16 0,1.85 -0.93,2.78 -2.78,2.78l-15.55 -0.28c-0.93,0 -1.62,-0.28 -2.08,-0.83 -0.46,-0.55 -0.6,-1.2 -0.42,-1.94 0.93,-10.92 5.37,-19.76 13.33,-26.51 7.96,-6.76 17.77,-10.14 29.43,-10.14zm-5 127.73c7.59,0 14.16,-2.45 19.72,-7.36 5.55,-4.9 8.33,-11.71 8.33,-20.41l0 -23.32c0,-0.74 -0.37,-1.11 -1.11,-1.11l-19.71 0c-8.89,0 -15.92,2.36 -21.1,7.08 -5.18,4.72 -7.77,11.71 -7.77,20.96 0,8.15 1.99,14.21 5.97,18.19 3.98,3.98 9.21,5.97 15.69,5.97zm150.49 -178.54c1.11,-0.56 2.32,-0.84 3.61,-0.84l14.99 0c1.85,0 2.78,0.93 2.78,2.78l0 188.81c0,1.85 -0.93,2.78 -2.78,2.78l-14.16 0c-1.85,0 -2.78,-0.92 -2.78,-2.78l0 -168.26c0,-0.37 -0.14,-0.65 -0.42,-0.83 -0.28,-0.18 -0.6,-0.18 -0.97,0l-26.1 8.61 -0.83 0.27c-1.3,0 -2.13,-0.83 -2.5,-2.5l-1.39 -10.27 0 -0.56c0,-0.93 0.65,-1.85 1.94,-2.78l28.6 -14.44z"/>
   </g>
   <g>
    <path class="fil0" d="M687.41 380.57c19.92,15.8 31.56,39.95 32.28,65.42 0.82,27.35 -10.93,53.83 -32,71 -26.5,17.91 -60.04,21.8 -88.81,9.33 -18.75,-7.76 -35.92,-18.72 -50.73,-32.75 -12.46,-10.93 -22.64,-23.36 -31.99,-36.61 -2.3,-2.4 -3.9,-4.69 -6.22,-6.32 -10.9,-9.33 -24.99,-14 -38.95,-11.65 -14.07,1.57 -26.5,10.15 -34.32,21.83 -1.57,3.17 -3.14,5.43 -3.92,8.58 -4.66,16.35 -7.01,33.5 -7.82,50.67 -0.76,21.08 -2.29,42.87 -5.43,63.94l-6.97 27.3 -52.23 -17.15c5.41,-7.84 10.12,-16.42 14.02,-25.74 7.84,-20.23 12.49,-41.3 14.09,-62.37 0.75,-12.44 0,-25.69 -3.92,-37.43 -0.79,-3.09 -2.33,-6.22 -3.91,-8.57 -7.82,-11.68 -20.26,-19.44 -34.32,-21.86 -14.03,-2.32 -28.05,2.42 -38.95,11.75 -2.35,1.5 -4.71,3.92 -6.27,6.22 -8.58,14.07 -19.48,25.71 -31.97,36.64 -14.83,14.06 -31.91,24.99 -50.66,32.72 -29.6,11.74 -63.13,8.61 -88.81,-9.33 -21.07,-17.17 -32.82,-43.65 -32,-70.97 0.82,-27.27 14.8,-52.23 36.63,-68.57 -22.58,-15.66 -35.81,-41.36 -36.63,-68.64 -0.78,-27.33 10.9,-53.83 31.97,-70.98 26.48,-18.67 59.99,-21.8 88.81,-9.33 24.98,10.14 47.56,26.48 64.73,47.56 9.33,10.14 20.29,19.5 31.91,26.49 3.17,2.34 6.26,3.12 10.17,3.9 3.92,0 7.82,0 10.9,-1.57l-0.07 0.06c2.32,-0.75 3.11,-1.5 4.68,-2.32 4.69,-4.66 7.03,-10.15 7.03,-16.4 0,-6.23 -2.32,-11.75 -7.01,-16.37 -6.21,-5.49 -12.46,-10.9 -19.46,-14.82 -27.27,-17.91 -49.13,-44.4 -61.59,-74.81 -11.74,-29.63 -8.58,-63.12 9.33,-88.87 17.17,-21.07 43.65,-32.75 70.97,-31.97 27.3,0.78 52.2,14.82 68.55,36.66 15.65,-22.63 41.37,-35.88 68.63,-36.66 27.34,-0.78 53.83,10.9 70.99,31.97 18.66,26.5 21.8,60.02 9.33,88.93 -12.46,30.4 -34.32,56.89 -61.6,74.84 -7.04,3.9 -13.23,9.39 -19.51,14.8 -4.69,4.67 -7.01,10.14 -7.01,16.35 0,6.22 2.32,11.68 7.01,16.37 1.5,1.6 3.11,2.32 4.67,3.11 3.14,1.56 6.98,2.35 10.9,1.56 3.9,-0.78 7.04,-2.35 10.15,-3.92 11.74,-7.01 22.58,-16.34 32,-26.48 17.16,-21.07 39.73,-37.43 64.72,-47.57 29.59,-11.68 63.1,-8.58 88.81,9.33 21.07,17.17 32.75,43.65 31.97,70.97 -0.82,27.15 -14.76,52.07 -36.42,68.39l-0.91 -0.6c35.08,-25.74 44.44,-74.07 21.08,-110.73 -23.43,-36.64 -70.98,-49.07 -109.19,-28.07 -18.66,8.63 -35.83,20.31 -49.88,34.32 -10.92,10.93 -21.82,21.07 -33.54,30.4 -9.33,6.27 -20.26,9.34 -31.97,10.16 -3.92,0 -7.82,-1.5 -9.33,-5.42 -2.35,-5.5 -3.92,-10.99 -3.14,-17.16 0.78,-10.17 4.67,-19.57 12.46,-25.78 6.23,-5.47 12.5,-10.14 19.51,-14.06 21.83,-17.91 38.98,-39.73 50.66,-65.48 21.07,-38.22 8.62,-85.8 -27.99,-109.16 -38.24,-23.38 -86.58,-14.02 -112.3,21.07l-0.09 -0.08c-25.73,-35.07 -74.05,-44.43 -110.71,-21.07 -36.67,23.41 -49.14,70.98 -28.1,109.19 11.65,25.73 28.79,47.56 50.64,65.48 7.01,3.9 13.25,9.33 19.48,14.05 7.82,6.24 11.74,16.35 12.46,25.71 0,6.23 -0.78,11.75 -3.14,17.16 -1.5,3.13 -5.41,5.42 -9.33,5.42 -11.68,-0.75 -22.58,-3.86 -31.97,-10.08 -11.68,-9.34 -22.58,-19.46 -33.51,-30.42 -14.82,-13.99 -31.97,-25.67 -49.91,-34.31 -38.24,-20.99 -85.8,-8.53 -109.16,28.11 -23.33,36.66 -13.97,84.98 21.07,110.73 -35.04,25.76 -43.65,74.05 -21.07,110.78 23.48,36.61 71.04,49.07 109.23,28 27.3,-12.43 50.69,-31.15 68.63,-54.54 3.1,-3.92 6.21,-7.83 10.11,-11.69 10.9,-12.49 27.28,-19.5 43.65,-16.38 16.38,2.32 30.4,13.25 37.43,28.85 1.56,2.35 2.35,5.41 3.9,8.58 3.11,10.83 4.67,21.83 4.67,32.75 0,10.9 -1.5,21.83 -4.64,31.97 -3.12,11.65 -7.01,24.08 -10.93,35.82 -3.08,7.83 -7.01,15.59 -11.68,22.58l46 15.65 5.43 -21.86c3.15,-21.83 4.72,-43.65 6.25,-65.51 0.81,-17.15 3.17,-34.31 7.04,-51.47 0.79,-3.1 2.35,-5.41 3.92,-8.55 6.22,-15.6 20.26,-26.5 37.43,-28.85 16.37,-2.34 32.75,3.92 43.65,16.38 3.12,3.92 7.01,7.82 10.14,11.68 17.94,23.39 41.33,42.15 68.63,54.58 38.18,21.07 85.74,8.64 109.13,-28 22.22,-34.92 14.85,-80.23 -16.04,-106.75l0.15 -0.09z"/>
    <g>
     <path class="fil0" d="M360.83 593.89l51.47 16.87 6.87 -26.89c2.78,-18.66 4.52,-39.56 5.43,-63.82 0.89,-18.55 3.51,-35.62 7.82,-50.79 0.6,-2.35 1.66,-4.31 2.71,-6.33 0.42,-0.75 0.85,-1.5 1.21,-2.32 8.22,-12.34 21.15,-20.52 34.62,-22.03 2.4,-0.3 4.81,-0.6 7.21,-0.6 11.35,0 22.7,4.46 32.03,12.43 1.5,1.02 2.77,2.4 4.08,3.91 0.6,0.75 1.32,1.56 2.1,2.35 10.96,15.54 21.07,27.09 31.91,36.67 14.57,13.75 31.61,24.74 50.58,32.7 11.13,4.81 23.03,7.21 35.31,7.21 18.85,0 37.33,-5.71 53.28,-16.56 20.71,-16.86 32.62,-43.29 31.83,-70.66 -0.75,-27.58 -14.4,-53.11 -36.42,-68.33 -0.13,0 -0.19,-0.16 -0.19,-0.3 0,-0.1 0.06,-0.19 0.16,-0.32 22.36,-16.79 35.67,-41.69 36.42,-68.33 0.78,-27.33 -11.15,-53.73 -31.83,-70.62 -15.19,-10.54 -33.35,-16.16 -52.46,-16.16 -12.34,0 -24.44,2.3 -36.03,6.92 -25.29,10.23 -47.66,26.67 -64.58,47.41 -9.93,10.83 -21.07,19.99 -32.07,26.62 -3.12,1.58 -6.32,3.19 -10.22,3.97 -3.69,0.72 -7.69,0.16 -11.15,-1.6 -1.6,-0.79 -3.19,-1.6 -4.81,-3.19 -4.7,-4.73 -7.07,-10.33 -7.07,-16.62 0,-6.32 2.4,-11.87 7.1,-16.56 6.16,-5.42 12.53,-10.99 19.57,-14.93 27.19,-17.86 49.01,-44.39 61.42,-74.66 12.64,-29.26 9.21,-62.31 -9.28,-88.51 -16.25,-19.96 -41.72,-31.91 -68.1,-31.91 -0.89,0 -1.71,0 -2.56,0.06 -27.62,0.79 -53.17,14.44 -68.33,36.49l-0.31 0.14c-0.14,0 -0.3,0 -0.3,-0.11 -16.86,-22.47 -41.79,-35.83 -68.33,-36.52l-2.58 0c-26.4,0 -51.84,11.88 -68.1,31.85 -17.7,25.35 -21.17,58.47 -9.33,88.51 12.42,30.28 34.24,56.81 61.46,74.66 7.04,3.9 13.4,9.47 19.57,14.87 4.7,4.7 7.1,10.3 7.1,16.62 0,6.32 -2.4,11.92 -7.07,16.65l-0.12 0.05 -1.29 0.79c-0.91,0.54 -1.75,1.08 -3.31,1.63 -3.2,1.56 -7.23,1.56 -11.09,1.56 -3.92,-0.81 -7.17,-1.6 -10.38,-4 -10.99,-6.63 -22.08,-15.79 -32,-26.56 -16.85,-20.78 -39.23,-37.18 -64.59,-47.48 -11.43,-4.94 -23.53,-7.46 -35.97,-7.46 -18.81,0 -37.03,5.82 -52.56,16.79 -20.68,16.87 -32.58,43.29 -31.8,70.64 0.79,27.59 14.46,53.15 36.49,68.33 0.1,0.1 0.16,0.22 0.16,0.3 0,0.12 -0.06,0.25 -0.16,0.31 -22.42,16.86 -35.73,41.75 -36.49,68.33 -0.78,27.39 11.13,53.79 31.83,70.68 15.19,10.6 33.35,16.2 52.46,16.2 12.34,0 24.44,-2.32 36.07,-6.93 19.04,-7.9 36.03,-18.89 50.58,-32.66 14,-12.21 24.15,-23.83 31.91,-36.55 1.56,-2.4 3.92,-4.72 6.31,-6.32 9.28,-7.95 20.65,-12.34 31.97,-12.34 2.41,0 4.88,0.2 7.23,0.59 14.27,2.42 26.86,10.4 34.62,21.98 1.81,2.71 3.23,5.86 3.92,8.74 3.48,10.44 4.81,23.08 3.9,37.51 -1.59,21.37 -6.32,42.37 -14.05,62.5 -3.8,9.22 -8.44,17.77 -13.8,25.42l0 -0.31zm51.7 18l-0.16 0 -52.23 -17.16c-0.12,0 -0.2,-0.13 -0.23,-0.23 0,-0.1 0,-0.22 0.06,-0.3 5.41,-7.74 10.11,-16.38 13.99,-25.65 7.71,-20.08 12.43,-41.03 14,-62.33 0.91,-14.27 -0.39,-26.79 -3.9,-37.24 -0.68,-2.71 -2.12,-5.83 -3.83,-8.42 -7.62,-11.44 -20.05,-19.39 -34.09,-21.68 -2.34,-0.42 -4.76,-0.6 -7.14,-0.6 -11.13,0 -22.39,4.29 -31.61,12.18 -2.32,1.57 -4.59,3.86 -6.13,6.15 -7.78,12.7 -17.95,24.38 -32.03,36.73 -14.55,13.75 -31.61,24.81 -50.76,32.8 -11.68,4.58 -23.91,6.93 -36.31,6.93 -19.27,0 -37.57,-5.66 -52.88,-16.35 -20.9,-17.03 -32.92,-43.65 -32.1,-71.25 0.75,-26.67 14,-51.64 36.42,-68.65 -22.06,-15.35 -35.64,-40.94 -36.42,-68.58 -0.82,-27.56 11.19,-54.19 32.1,-71.22 15.65,-11.09 34.01,-16.92 52.98,-16.92 12.53,0 24.74,2.53 36.27,7.53 25.42,10.32 47.87,26.78 64.85,47.65 9.85,10.69 20.87,19.87 31.83,26.4 3.09,2.35 6.23,3.11 9.99,3.86 3.73,0 7.65,0 10.69,-1.5 1.55,-0.55 2.4,-1.04 3.31,-1.56 0.39,-0.25 0.82,-0.52 1.32,-0.75 4.52,-4.52 6.87,-9.94 6.87,-16.06 0,-6.07 -2.32,-11.49 -6.93,-16.1 -6.07,-5.33 -12.4,-10.83 -19.38,-14.75 -27.39,-17.97 -49.28,-44.61 -61.71,-75.01 -11.98,-30.29 -8.48,-63.64 9.33,-89.23 16.43,-20.18 42.09,-32.22 68.71,-32.22 0.83,0 1.71,0 2.56,0.06 26.7,0.78 51.68,14.03 68.63,36.42 15.37,-22.03 40.96,-35.64 68.64,-36.42 27.49,-0.83 54.29,11.32 71.2,32.1 18.66,26.43 22.15,59.79 9.42,89.26 -12.46,30.4 -34.42,57.01 -61.72,74.97 -7.02,3.9 -13.34,9.44 -19.46,14.74 -4.56,4.64 -6.91,10.07 -6.91,16.16 0,6.15 2.35,11.57 6.91,16.15 1.51,1.5 3.01,2.25 4.58,3.01 3.37,1.71 7.23,2.26 10.73,1.55 3.86,-0.75 6.98,-2.3 10.02,-3.84 10.99,-6.57 22.05,-15.73 31.91,-26.44 16.98,-20.87 39.45,-37.33 64.85,-47.68 11.68,-4.64 23.91,-6.99 36.32,-6.99 19.27,0 37.59,5.66 52.94,16.36 20.88,17.06 32.9,43.71 32.11,71.28 -0.77,26.67 -14.05,51.63 -36.42,68.58 21.98,15.35 35.62,41 36.42,68.65 0.75,27.56 -11.26,54.19 -32.11,71.21 -16.2,10.9 -34.78,16.68 -53.79,16.68 -12.34,0 -24.3,-2.46 -35.53,-7.32 -19.08,-7.9 -36.19,-18.96 -50.76,-32.8 -10.9,-9.48 -21.08,-21.17 -32,-36.73 -0.78,-0.69 -1.5,-1.51 -2.19,-2.29 -1.21,-1.44 -2.42,-2.79 -3.92,-3.8 -9.23,-7.82 -20.46,-12.18 -31.61,-12.18 -2.4,0 -4.81,0.2 -7.13,0.6 -13.23,1.44 -26.01,9.58 -34.07,21.68 -0.3,0.75 -0.75,1.5 -1.14,2.25 -1.12,2.11 -2.1,3.91 -2.65,6.2 -4.35,15.15 -6.93,32.16 -7.82,50.58 -0.91,24.38 -2.71,45.27 -5.42,64l-7.07 27.3c0,0.09 -0.09,0.16 -0.19,0.22l-0.17 0 0 0.02z"/>
    </g>
    <path class="fil1" d="M408.64 96.66c-25.73,-35.07 -74.05,-44.43 -110.73,-21.07 -36.65,23.41 -49.12,70.98 -28.08,109.19 11.65,25.73 28.79,47.56 50.65,65.48 7.01,3.9 13.23,9.33 19.47,14.05 7.82,6.24 11.74,16.35 12.47,25.71 0,6.23 -0.79,11.75 -3.14,17.16 -1.5,3.13 -5.42,5.42 -9.33,5.42 -11.68,-0.75 -22.58,-3.86 -31.97,-10.08 -11.68,-9.34 -22.58,-19.46 -33.51,-30.42 -14.82,-13.99 -31.97,-25.67 -49.92,-34.31 -38.23,-20.99 -85.8,-8.53 -109.14,28.11 -23.33,36.66 -13.97,84.98 21.07,110.73 -35.05,25.76 -43.65,74.05 -21.07,110.78 23.47,36.61 71.04,49.07 109.21,28 27.31,-12.43 50.71,-31.15 68.64,-54.54 3.11,-3.92 6.19,-7.83 10.12,-11.69 10.9,-12.49 27.28,-19.5 43.65,-16.38 16.37,2.32 30.4,13.25 37.43,28.85 1.55,2.35 2.34,5.41 3.9,8.58 3.1,10.83 4.67,21.83 4.67,32.75 0,10.9 -1.5,21.83 -4.64,31.97 -3.13,11.65 -7.01,24.08 -10.93,35.82 -3.11,7.83 -7.01,15.59 -11.68,22.58l46 15.65 5.42 -21.86c3.15,-21.83 4.72,-43.65 6.26,-65.51 0.82,-17.15 3.15,-34.31 7.04,-51.47 0.78,-3.1 2.35,-5.41 3.92,-8.55 6.22,-15.6 20.26,-26.5 37.41,-28.85 16.39,-2.34 32.75,3.92 43.65,16.38 3.13,3.92 7.02,7.82 10.14,11.68 17.95,23.39 41.35,42.15 68.64,54.58 38.18,21.07 85.74,8.64 109.13,-28 23.36,-36.72 14,-84.98 -21.07,-110.78 35.07,-25.68 44.44,-74.07 21.07,-110.66 -23.43,-36.64 -70.98,-49.08 -109.19,-28.07 -18.66,8.61 -35.83,20.29 -49.88,34.32 -10.93,10.92 -21.83,21.07 -33.54,30.4 -9.33,6.27 -20.26,9.34 -31.97,10.14 -3.92,0 -7.82,-1.51 -9.33,-5.41 -2.35,-5.52 -3.92,-10.99 -3.14,-17.17 0.79,-10.17 4.66,-19.57 12.47,-25.76 6.23,-5.49 12.5,-10.14 19.5,-14.07 21.83,-17.91 38.98,-39.73 50.66,-65.48 21.08,-38.23 8.61,-85.8 -27.98,-109.16 -38.24,-23.39 -86.58,-14.02 -112.3,21.07l-0.07 -0.14z"/>
    <g>
     <path class="fil0" d="M368.91 592.25l41.39 14.02 4.94 -19.61c3.01,-21.62 4.58,-43.75 6.1,-65.15 0.78,-17.17 3.17,-34.56 7.09,-51.79 0.59,-2.59 1.68,-4.6 2.86,-6.78l1.14 -2.25c6.54,-16.25 21.07,-27.52 39.01,-29.95 2.32,-0.36 4.74,-0.55 7.08,-0.55 14.67,0 28.61,6.42 38.4,17.56 1.6,1.98 3.32,3.91 5.06,5.83 1.8,1.93 3.56,3.92 5.11,5.88 17.77,23.18 41.25,41.83 67.89,54 12.04,6.62 25.29,10 38.71,10 27.58,0 52.98,-13.97 67.89,-37.33 22.69,-35.53 13.66,-82.95 -20.48,-108.02l-2.29 -1.63 2.26 -1.63c34.15,-25.04 43.18,-72.45 20.48,-107.96 -14.91,-23.39 -40.34,-37.33 -67.86,-37.33 -13.39,0 -26.74,3.4 -38.53,9.94 -18.8,8.61 -35.83,20.32 -49.5,33.96 -12.25,12.28 -22.97,21.97 -33.71,30.56 -9.25,6.23 -20.35,9.75 -33.05,10.59 -5.52,0 -9.71,-2.53 -11.38,-6.75 -2.12,-4.81 -4.15,-10.83 -3.26,-18.06 0.85,-11.43 5.42,-20.89 13.19,-27.1 6.87,-6.02 13.19,-10.54 19.79,-14.23 21.58,-17.77 38.45,-39.56 49.81,-64.54 20.41,-37.03 8.37,-83.82 -27.33,-106.57 -13.39,-8.22 -28.6,-12.59 -44.05,-12.59 -26.18,0 -50.09,12.04 -65.51,33.12l-1.63 2.23 -1.65 -2.27c-15.18,-20.71 -39.5,-33.12 -65.02,-33.12 -15.24,0 -30.1,4.36 -42.93,12.58 -35.7,22.81 -47.71,69.54 -27.39,106.48 11.43,25.1 28.29,46.96 50.17,64.88 5.06,2.71 9.88,6.52 14.55,10.18l4.93 3.84c7.52,6.02 12.36,15.96 13.31,27.22 0,7.32 -1.02,12.82 -3.31,18.15 -1.99,3.97 -6.63,6.68 -11.23,6.68 -12.85,-0.89 -23.94,-4.39 -33.11,-10.54 -10.83,-8.64 -21.53,-18.36 -33.81,-30.7 -14.36,-13.55 -31.47,-25.29 -49.38,-33.84 -11.93,-6.63 -25.29,-10.03 -38.67,-10.03 -27.56,0 -52.98,13.94 -67.88,37.33 -22.64,35.53 -13.64,82.91 20.53,107.96l2.26 1.63 -2.26 1.66c-33.62,24.68 -42.65,72.09 -20.46,107.98 14.86,23.35 40.25,37.32 67.81,37.32 13.41,0 26.74,-3.43 38.54,-9.93 26.86,-12.29 50.27,-30.95 68.03,-54.08 3.1,-3.9 6.31,-7.82 10.3,-11.85 11.74,-13.45 29.19,-20.03 45.45,-16.95 16.98,2.42 31.55,13.64 38.93,29.98 0.9,1.21 1.57,3.01 2.29,4.83 0.47,1.19 0.99,2.4 1.59,3.67 3.32,11.35 4.91,22.58 4.91,33.62 0,11.29 -1.65,22.28 -4.82,32.52 -2.71,10.38 -6.44,22.49 -10.92,35.92 -3.08,7.73 -6.62,14.74 -10.48,20.92l0.07 0.09zm44.18 19.18l-50.57 -17.11 1.5 -2.23c4.27,-6.48 8.12,-13.94 11.43,-22.22 4.44,-13.25 8.14,-25.29 10.85,-35.64 3.01,-9.79 4.62,-20.65 4.62,-31.41 0,-10.65 -1.58,-21.5 -4.62,-32.21 -0.52,-0.97 -1.07,-2.32 -1.57,-3.61 -0.61,-1.63 -1.27,-3.16 -2.05,-4.38 -6.92,-15.35 -20.36,-25.68 -36,-27.91 -2.56,-0.47 -5.06,-0.72 -7.52,-0.72 -12.7,0 -25.2,5.93 -34.32,16.39 -3.92,3.9 -7.04,7.82 -10.08,11.62 -18.12,23.6 -42.15,42.68 -69.4,55.17 -12.28,6.77 -26.31,10.4 -40.39,10.4 -28.96,0 -55.65,-14.67 -71.36,-39.23 -22.72,-36.97 -14.14,-85.5 19.46,-111.84 -34.15,-26.67 -42.76,-75.26 -19.46,-111.78 15.67,-24.57 42.37,-39.23 71.36,-39.23 14.05,0 28.08,3.62 40.51,10.46 18.16,8.66 35.58,20.65 50.27,34.62 12.26,12.19 22.89,21.83 33.43,30.28 8.42,5.6 18.83,8.87 30.86,9.69 2.88,0 6.13,-1.86 7.37,-4.33 2.02,-4.64 2.92,-9.69 2.92,-16.26 -0.85,-9.94 -5.11,-18.82 -11.74,-24.08l-4.9 -3.83c-4.52,-3.61 -9.27,-7.23 -14.3,-10.05 -22.69,-18.61 -39.9,-40.88 -51.54,-66.45 -21.3,-38.65 -8.67,-87.77 28.82,-111.68 13.55,-8.67 29.1,-13.25 45.09,-13.25 25.95,0 50.69,12.17 66.72,32.61 16.2,-20.71 40.52,-32.52 67.13,-32.52 16.13,0 32.13,4.52 46.19,13.13 37.53,23.97 50.14,73.1 28.77,111.87 -11.53,25.43 -28.77,47.71 -51.18,66.1 -6.62,3.71 -12.7,8.14 -19.41,13.97 -8.74,7.03 -11.26,17.11 -11.84,24.38 -0.79,6.33 1.05,11.75 2.95,16.17 1.57,3.79 5.78,4.21 7.53,4.21 11.87,-0.82 22.28,-4.09 30.82,-9.81 10.43,-8.42 21.08,-18 33.21,-30.1 13.97,-14.05 31.44,-26.06 50.49,-34.79 12.34,-6.8 26.31,-10.41 40.41,-10.41 28.99,0 55.63,14.66 71.34,39.22 23.3,36.55 14.69,85.14 -19.41,111.84 34.1,26.73 42.74,75.26 19.38,111.84 -15.65,24.57 -42.29,39.23 -71.34,39.23 -14.03,0 -28.01,-3.62 -40.47,-10.49 -27.09,-12.34 -51.08,-31.45 -69.24,-55.09 -1.51,-1.9 -3.22,-3.82 -4.94,-5.72 -1.8,-1.99 -3.61,-3.97 -5.11,-5.96 -10.41,-11.87 -26.34,-17.86 -41.85,-15.65 -16.4,2.26 -29.81,12.54 -35.83,27.6l-1.25 2.42c-1.08,2.04 -2.02,3.79 -2.54,5.86 -3.84,16.86 -6.19,34.09 -6.92,51.04 -1.56,21.54 -3.17,43.76 -6.32,65.71l-6.02 24.18 0 -0.06 0.08 0.03z"/>
    </g>
    <path class="fil2" d="M408.64 540.22l10.9 -70.87c8.58,0 16.39,0 24.93,-0.78 3.14,24.18 14.03,46.82 29.62,65.48 -16.4,24.18 -38.98,42.9 -65.48,55.39 -26.49,-11.74 -49.13,-31.21 -65.54,-55.39 16.42,-18.66 26.5,-41.3 30.42,-65.48 8.61,0 16.4,0.78 24.98,0.78l10.15 70.87 0 0.1 0 -0.1 0.03 0zm-78.77 -76.31c10.93,1.5 22.63,3.1 33.52,3.9 -1.55,12.43 -5.41,24.93 -11.66,35.83 -6.33,11.74 -15.67,20.29 -27.41,24.99 -10.84,3.11 -22.58,1.5 -31.91,-5.49 -9.33,-6.22 -15.65,-16.37 -17.15,-27.3 12.46,3.91 25.69,3.14 37.41,-3.1 6.24,-3.13 10.9,-7.82 13.25,-14.03 2.35,-4.69 3.92,-9.33 3.92,-14.8l0.03 0zm157.5 0c-10.9,1.5 -22.58,3.1 -33.51,3.9 1.5,12.43 5.43,24.93 11.68,35.83 6.22,11.74 15.6,20.29 27.28,24.99 10.93,3.11 22.58,1.5 31.97,-5.49 9.33,-6.22 15.59,-16.37 17.15,-27.3 -12.46,3.91 -25.74,3.14 -37.43,-3.1 -6.22,-3.13 -10.93,-7.82 -13.23,-14.03 -2.35,-4.69 -3.92,-9.33 -3.92,-14.8zm-169.93 -38.24c14.74,-3.09 29.59,-4.66 44.4,-6.23 -6.24,-31.97 -20.28,-62.37 -40.53,-88.09 -10.98,-13.25 -23.47,-25 -38.23,-33.6 -13.25,-8.58 -28.9,-12.47 -44.5,-13.25 -29.62,0.78 -55.33,17.95 -67.83,44.43 -6.26,13.32 -9.33,28.13 -10.17,42.15 -0.75,45.22 33.54,83.4 77.97,86.52 -7.01,-21.08 0,-43.65 17.96,-56.89 10.9,-6.24 24.13,-6.24 34.31,0 10.1,7.01 18.67,14.8 26.5,24.98l0.06 0 0.07 -0.03zm182.43 0c-14.85,-3.09 -29.65,-4.66 -44.47,-6.23 6.23,-31.97 20.29,-62.37 40.55,-88.09 10.93,-13.25 23.39,-25 38.24,-33.6 13.23,-8.58 28.8,-12.47 44.4,-13.25 29.62,0.78 55.38,17.95 67.85,44.43 6.18,13.32 9.34,28.13 10.06,42.15 0.78,45.22 -33.51,83.4 -77.97,86.52 7.01,-21.08 0,-43.65 -17.92,-56.89 -10.94,-6.24 -24.2,-6.24 -34.31,0 -10.18,7.01 -18.68,14.74 -26.5,24.98l0.06 -0.03zm-244.85 -74.05l-24.13 0 -7.84 -23.39 -7.82 23.39 -24.9 0 20.27 14.03 -7.74 23.39 20.29 -14.03 19.47 13.97 -7.01 -23.39 19.48 -14 -0.06 0.03zm331.37 0l7.76 -23.39 7.82 23.39 25 0 -20.29 14 7.83 23.39 -20.29 -14 -19.48 14 7.04 -23.39 -19.57 -14.03 24.21 0 -0.03 0.03z"/>
    <g>
     <path class="fil0" d="M297.91 443.62c0,9.33 49.08,17.94 110.7,17.94 60.82,0 110.66,-7.83 110.66,-17.94 0,-9.34 -49.12,-17.92 -110.73,-17.92 -60.81,0.78 -110.71,8.58 -110.71,17.92l0.08 0zm110.7 -214.42l-12.49 188.7c-7.84,0 -15.6,0.79 -23.39,0.79 -1.57,-17.16 -5.43,-33.54 -11.74,-49.91 -6.21,-19.49 -14,-39 -21.79,-58.47 -7.83,-18.72 -14.04,-37.46 -17.92,-56.9 -7.82,-31.21 1.5,-64.72 24.08,-87.37 13.25,-12.46 26.5,-24.98 40.56,-36.63 10.93,-8.53 18.72,-20.18 22.58,-33.47 3.9,13.23 11.73,24.16 22.63,33.52 14.03,11.75 28.07,24.21 40.53,36.68 22.58,23.39 31.18,56.15 24.18,87.3 -3.92,19.5 -10.17,39.01 -17.98,56.96 -8.58,18.66 -15.59,38.23 -21.83,58.46 -5.47,16.38 -9.39,32.75 -11.73,49.89 -7.78,-0.75 -15.57,-0.75 -23.36,-0.75l-12.49 -188.7 0.09 0 0.08 -0.09z"/>
    </g>
    <g>
     <path class="fil0" d="M594.18 374.65c0.09,0 0.16,0 0.22,0.06l19.38 13.36 -7.43 -22.36c-0.06,-0.13 0,-0.3 0.13,-0.39l19.38 -13.37 -23.79 0c-0.17,0 -0.3,-0.08 -0.36,-0.24l-7.43 -22.37 -7.46 22.37c0,0.16 -0.19,0.24 -0.3,0.24l-23.1 0 18.61 13.41c0.11,0.06 0.17,0.2 0.11,0.36l-6.71 22.36 18.66 -13.42c0,-0.06 0.09,-0.09 0.16,-0.09l-0.07 0.09zm-19.41 14.66c-0.09,0 -0.16,0 -0.22,-0.07 -0.11,-0.1 -0.17,-0.24 -0.14,-0.39l6.92 -23.17 -19.25 -13.84c-0.13,-0.13 -0.16,-0.32 -0.13,-0.43 0.09,-0.19 0.2,-0.3 0.3,-0.3l23.99 0 7.71 -23.19c0.1,-0.24 0.6,-0.24 0.66,0l7.75 23.19 24.68 0c0.17,0 0.3,0.11 0.36,0.3 0.07,0.11 0,0.3 -0.12,0.36l-20.04 13.84 7.7 23.18c0.07,0.13 0,0.31 -0.12,0.39 -0.11,0.13 -0.3,0.13 -0.41,0l-20.09 -13.84 -19.27 13.84 -0.2 0.1 -0.06 0.03z"/>
    </g>
    <g>
     <path class="fil0" d="M171.06 96.74c-3.16,-3.12 -7.12,-5.5 -11.81,-5.5l29.9 -22.82c4.62,0.82 8.57,3.15 11.73,6.32 3.13,3.14 7.08,5.47 11.8,6.26l-29.12 20.47c-4.72,-0.78 -8.67,-2.35 -12.58,-4.73l0.06 0zm39.28 -28.29c-2.35,-3.92 -6.32,-6.33 -11.02,-7.1l32.28 -18.88c3.91,1.57 7.82,3.9 11.01,7.82 2.35,3.97 6.33,6.32 11.02,7.92l-31.49 16.49c-4.73,-1.56 -8.64,-3.13 -11.8,-6.32l0 0.06zm42.51 -23.66c-2.4,-3.92 -5.5,-7.05 -9.46,-8.62l33.84 -14.14c3.92,2.35 7.09,5.47 9.42,9.42 2.32,3.92 5.42,7.07 9.39,9.45l-32.96 12.6c-3.92,-2.4 -7.83,-4.75 -10.24,-8.72zm44.86 -17.26c-1.57,-3.91 -4.72,-7.89 -8.67,-9.46l36.22 -9.43c3.91,2.3 6.32,6.22 8.64,10.22 1.57,3.92 4.72,7.84 7.83,10.24l-33.78 7.82c-4.73,-2.4 -7.88,-5.53 -10.23,-9.47l0 0.08zm47.21 -11.07c-0.78,-4.7 -3.92,-7.82 -7.08,-10.24l36.97 -4.7c3.13,3.17 5.52,7.09 7.07,11.02 0.85,4.73 3.23,8.64 7.14,11.02l-34.62 3.92c-4.69,-3.14 -7.82,-7.09 -9.42,-10.99l-0.05 -0.03zm48.01 -4.67c0,-4.72 -2.35,-8.67 -5.5,-11.79l36.96 0c3.17,3.12 4.74,7.82 5.52,11.79 0,4.73 2.4,8.64 5.5,11.8l-35.4 -0.78c-3.12,-3.16 -5.5,-7.1 -7.07,-11.02zm47.97 0.78c0,-4.72 -1.51,-8.67 -3.92,-11.8l37.04 4.73c2.3,3.92 3.9,7.83 3.9,12.57 0,4.74 0.78,8.65 3.92,12.59l-34.65 -5.44c-3.13,-3.13 -5.52,-7.84 -6.32,-12.59l0.03 -0.07zm47.98 7.82c0.78,-4.69 0,-8.61 -2.35,-12.54l36.19 9.46c1.51,3.9 2.29,8.64 2.29,13.36 -0.78,4.82 0,9.52 1.6,13.42l-33.87 -10.22c-2.35,-3.92 -3.92,-8.64 -3.92,-13.37l0.06 -0.1zm46.36 13.44c1.57,-3.92 0.78,-8.64 -0.78,-12.59l34.62 14.15c1.63,3.92 1.63,8.67 0,13.4 -1.5,3.9 -1.5,8.67 0,13.36l-32.2 -14.14c-1.57,-4.72 -2.42,-9.45 -1.57,-14.14l-0.06 -0.03zm44.08 20.49c1.58,-3.9 2.4,-8.73 0.82,-12.64l32.2 18.91c0.82,4.72 0,8.64 -1.5,13.36 -2.41,3.92 -2.41,8.67 -1.6,13.39l-29.88 -18.11c-0.72,-6.24 -0.72,-10.93 0,-14.88l-0.03 -0.03zm-175.39 745.03c-0.79,-4.72 -2.35,-9.46 -5.52,-12.58 -7.83,3.91 -14.93,9.42 -21.25,14.93 -1.57,0.85 -3.92,2.41 -5.5,3.23 -0.74,4.72 -0.74,8.64 0.89,13.36 2.32,3.92 2.32,7.83 1.5,12.64 7.82,-2.4 14.96,-7.1 21.26,-11.82 2.4,-2.35 5.5,-4.74 8.67,-6.32 1.55,-0.75 2.33,-1.5 3.9,-2.32 -3.12,-3.98 -4.69,-7.92 -3.9,-11.05l-0.06 -0.06zm48.01 -15.68c-0.78,-4.72 -2.35,-8.64 -5.51,-12.59 -14.92,1.56 -29.9,5.52 -43.26,12.59 7.07,3.17 11.02,9.45 11.79,16.55 0,1.51 0.73,2.32 0.73,3.92 12.58,-5.52 25.95,-8.67 39.34,-9.45 -2.42,-3.17 -3.13,-7.07 -3.13,-11.02l0.03 0zm40.91 -7.83c-11.79,-3.2 -24.38,-5.53 -36.96,-4.77 4.72,3.17 7.07,8.67 7.07,14.16 0,1.6 0.78,3.15 0.78,3.91l0 6.33 12.53 1.58c8.67,-5.5 14.14,-12.63 16.56,-21.25l0.02 0.03zm22.8 -0.03c-4.73,-0.81 -9.45,0.75 -13.37,2.32 -2.4,9.45 -8.67,17.31 -16.56,23.6 5.55,1.63 10.24,4.81 12.65,9.52 1.5,2.34 3.91,4.72 6.25,6.32 12.59,-11.05 20.48,-25.98 22.83,-42.51 -3.92,1.57 -7.84,1.57 -11.81,0.78l0 -0.03zm-27.52 39.31c1.57,3.92 4.7,7.12 7.82,8.67 -10.24,6.33 -21.96,9.45 -33.81,10.24 -4.72,0 -9.45,0 -14.14,-0.78 0,-3.15 0,-6.32 0.75,-8.67 2.4,-4.81 1.58,-11.07 -0.79,-15.81 4.72,1.6 8.67,1.6 13.39,1.6 5.57,0 10.24,-1.63 14.99,-3.18 5.52,0.77 8.67,3.9 11.8,7.89l-0.03 0.04zm-48.76 3.04c-1.6,3.92 -2.42,7.84 -1.6,11.81 -5.5,-1.57 -10.24,-4.72 -14.96,-7.83l-11.02 -7.88c8.67,-4.74 17.31,-8.67 27.55,-11.02 0.72,0 0.72,0.78 1.5,0.78 0,5.5 0,9.42 -1.5,14.14l0.03 0zm12.51 -68.45c-0.78,4.73 -2.34,8.67 -5.5,12.65 -14.93,-1.63 -29.12,-5.55 -42.44,-12.65 6.25,-3.12 10.99,-9.42 11.74,-16.5 0,-1.56 0.8,-3.17 0.8,-3.92 12.65,5.49 26.01,9.42 39.45,9.42 -3.2,3.2 -3.92,7.14 -3.92,11.09l-0.12 -0.09zm-48.74 -15.68c0,-3.91 0.79,-7.07 3.13,-10.23 -4.64,-3.14 -8.59,-5.51 -12.53,-9.42l-4.7 -3.11c-6.32,-3.9 -13.39,-7.82 -20.46,-9.44 -1.57,2.4 -2.35,5.5 -3.17,8.65 0,5.55 -3.13,11.05 -7.07,14.16 5.5,0.82 10.24,2.4 14.96,5.53l5.52 3.17c6.32,5.48 12.57,10.24 19.64,14.14 2.42,-3.9 4.77,-8.67 4.77,-13.39l-0.1 -0.07zm-49.53 -22.81c0,-3.92 0.82,-7.84 3.92,-10.99l-3.92 0c-17.31,-0.78 -33.8,5.5 -47.19,16.56 8.67,5.47 18.12,8.61 27.55,10.99 4.72,-1.6 9.45,-3.17 14.96,-3.17 2.35,-4.72 3.92,-8.64 4.69,-13.37l0 -0.02zm-60.57 21.28c0.78,-3.92 0,-8.67 -1.55,-12.59l13.36 5.48c7.1,3.9 15.74,7.1 23.6,9.45 1.6,2.35 2.42,5.5 1.6,8.64 -1.6,5.5 -0.81,11.02 0.79,16.56 -11.81,-2.42 -23.6,-6.32 -34.62,-11.84 -3.92,-3.91 -5.5,-10.24 -3.17,-15.71zm46.43 13.36l0 -7.83c8.67,1.5 18.06,1.5 26.8,0 7.82,7.05 16.46,13.34 25.13,18.85 -15.74,4.73 -31.48,7.07 -47.98,5.52 -4.67,-4.74 -6.24,-11.02 -3.92,-16.56l-0.03 0.02zm0.03 41.67l0 7.89c8.67,-1.56 18.06,-1.56 26.79,0 7.82,-7.07 16.46,-13.37 25.13,-18.88 -15.74,-4.72 -31.48,-7.07 -47.98,-5.5 -4.67,4.72 -6.24,11.01 -3.92,16.56l-0.03 -0.07zm22.06 21.28c-2.4,4.7 -2.4,10.24 0,15.71 0.78,3.11 1.56,6.24 0.78,9.39 -3.15,0.78 -6.32,0.78 -8.67,0.78 -17.31,0.75 -34.62,-5.53 -47.98,-16.56 8.67,-5.5 17.31,-8.64 27.55,-11.01 6.32,3.15 13.42,3.91 20.46,3.15 3.2,-0.82 5.55,-0.82 7.92,-1.58l-0.07 0.11zm-68.42 -7.95c0.78,6.33 -0.78,12.65 -4.72,18.06 3.22,-2.29 5.57,-4.66 8.74,-7.01 9.42,-6.23 20.46,-10.96 31.45,-14.15 1.57,-2.32 2.41,-5.42 1.57,-8.62 -1.57,-5.5 -0.78,-11.01 0.82,-16.56 -4.74,0.81 -10.24,2.41 -14.98,3.98 -7.07,2.35 -13.36,4.72 -19.64,7.82 -3.92,4.76 -5.52,11.06 -3.17,16.56l-0.06 -0.09zm0 -45.55l-6.32 -3.15c-2.32,9.42 -2.32,19.66 0,29.1 7.1,-3.91 14.99,-7.89 22.87,-10.22l0 -7.84c-5.53,-2.4 -11.04,-4.75 -16.56,-7.92l0 0.03zm-12.58 51.88c0.78,3.15 0,7.07 -0.78,10.22l-2.42 12.59 -14.14 16.56 -18.06 -15.77 14.14 -16.56c7.1,-7.82 14.96,-15.67 23.63,-21.2 -3.22,3.92 -4,9.42 -2.4,14.16l0.03 0zm-40.14 28.9l18.58 15.83 -2.02 2.4 -18.6 -15.8 2.04 -2.4 0 -0.03zm-6.25 6.62l18.58 15.77 -10.24 11.98 -18.55 -15.77 10.24 -12.04 -0.03 0.06zm285.5 -26.86c5.52,-6.32 9.46,-13.39 12.65,-20.46 7.82,5.51 14.14,11.81 20.4,18.88l14.16 16.46 -18.06 15.74 -14.16 -16.49c-4.75,-5.5 -9.47,-10.24 -14.99,-14.15l0 0.02zm53.53 22.8l-18.58 15.8 -2.04 -2.41 18.56 -15.77 2.05 2.42 0 -0.04zm13.7 15.77l-18.61 15.77 -10.24 -11.98 18.58 -15.8 10.24 12.04 0.03 -0.03zm-169.49 -140.11l5.5 -3.9c6.33,-3.92 12.59,-7.07 20.48,-9.46 1.57,2.4 2.35,5.5 3.14,8.67 0,5.5 3.15,10.24 7.07,14.15 -3.92,0.78 -7.14,1.56 -11.05,3.17 -9.46,-1.66 -19.7,-5.57 -28.3,-10.24 0.75,0 2.32,-0.85 3.1,-2.42l0.06 0.03zm75.5 43.26c-2.34,-8.67 -8.67,-16.56 -16.56,-20.46 -3.91,0.82 -8.61,1.6 -12.54,1.6l0 6.32c-0.85,1.58 -0.85,3.15 -0.85,3.9 0,5.55 -3.16,11.05 -7.07,14.16 12.58,0 25.16,-1.5 36.96,-5.43l0.06 -0.09zm9.42 -28.28c-3.15,3.15 -5.5,7.82 -6.32,11.79 5.5,7.82 8.67,17.25 7.89,27.49 3.92,-3.15 9.42,-4.72 14.93,-3.9 3.16,0 6.33,0 8.67,-0.82 -0.79,-16.56 -7.83,-32.28 -19.68,-44.07 0,3.9 -2.35,7.1 -5.48,9.45l0 0.07zm-221.86 -3.17c0.78,-3.92 0,-7.89 -1.57,-11.02l-33.84 -15.74c1.57,3.92 1.57,8.64 0,13.37 -0.78,3.9 -0.78,8.67 0,12.57l40.13 18.06c-4.72,-3.9 -7.07,-10.96 -4.72,-17.28l0 0.03zm-45.64 -18.91c-1.57,3.92 -2.35,8.67 -0.79,12.59l-32.2 -18.88c-0.81,-4.7 0,-8.64 1.5,-13.37 2.4,-3.9 2.4,-8.67 1.6,-13.36l29.95 18.06c0.79,6.32 0.79,11.05 0,14.96l-0.06 0zm-40.88 -25.14c-2.35,3.92 -3.13,8.64 -2.35,12.56l-29.9 -22.83c0,-4.75 0.78,-8.73 3.16,-12.64 2.29,-3.92 3.92,-8.64 3.08,-12.59l27.55 22.04c0,4.69 0,9.43 -1.6,13.36l0.06 0.09zm-37.82 -29.95c2.42,-4.74 2.42,-10.24 0.82,-15.76l-21.97 -23.6c-0.06,4.67 -1.63,8.61 -4.77,12.53 -2.4,3.9 -4.81,7.89 -4.81,12.64l26.8 25.89c-0.81,-3.9 0.75,-8.61 3.9,-11.73l0.03 0.03zm-33.05 -35.44c-3.13,3.15 -5.47,7.07 -5.47,11.79l-22.77 -29.88c0.78,-4.81 3.13,-8.74 6.32,-11.87 3.1,-3.15 5.49,-7.07 6.27,-11.79l20.46 28.3c-0.78,5.53 -2.34,9.44 -4.69,13.39l-0.13 0.06zm-28.27 -39.42c-3.9,2.41 -6.32,6.33 -7.07,11.02l-18.91 -32.3c1.6,-3.92 3.92,-7.89 7.89,-11.02 3.92,-2.32 6.33,-6.32 7.84,-10.98l16.56 31.45c-0.78,4.75 -3.16,8.73 -6.33,11.82l0.03 0zm-23.57 -42.45c-3.98,2.42 -7.1,5.49 -8.73,9.42l-14.14 -33.84c2.4,-3.9 5.53,-7.07 9.47,-9.42 3.92,-1.65 7.09,-5.57 9.43,-9.52l12.59 33.04c-2.35,3.9 -4.72,7.92 -8.64,10.24l0.03 0.08zm-17.37 -44.86c3.92,-2.4 7.07,-5.5 9.42,-9.44l-7.82 -33.9c-2.42,3.9 -6.32,7.1 -10.24,7.89 -3.92,1.56 -7.89,4.69 -10.24,8.64l9.42 36.19c2.42,-4.73 5.52,-7.84 9.46,-9.42l0 0.05zm-11.02 -47.23c3.92,-1.6 7.84,-4.72 10.23,-8.67l-3.9 -34.62c-3.17,3.92 -7.12,6.32 -11.05,7.1 -3.92,0.79 -7.82,3.92 -10.96,7.07l4.72 36.97c3.17,-3.9 6.33,-7.07 11.02,-7.82l-0.06 -0.03zm-4.75 -48.01c4.75,-1.57 8.74,-3.92 11.84,-7.09l0.77 -35.4c-3.18,3.11 -7.92,4.67 -11.86,5.43 -4.7,0.82 -8.64,2.41 -11.8,5.53l0 36.97c2.42,-3.14 6.33,-5.47 11.02,-5.47l0.03 0.03zm0.78 -48.03c4.72,-0.78 8.67,-2.35 12.58,-5.5l5.52 -34.62c-3.92,2.4 -7.82,3.91 -12.59,3.91 -4.72,0 -8.64,1.63 -12.57,3.98l-4.73 36.97c3.17,-3.92 7.89,-5.52 11.8,-4.74zm7.92 -47.77c4.66,0 9.39,-1.57 12.54,-3.91l10.24 -33.85c-3.91,2.35 -8.67,3.13 -13.39,1.56 -4.74,-0.78 -8.64,0 -13.38,2.42l-9.44 36.13c4.72,-2.35 8.65,-3.13 13.39,-2.35l0.03 0zm13.29 -46.41c4.74,0.8 9.42,0 13.37,-2.35l14.96 -31.47c-3.9,1.56 -8.67,1.56 -13.39,0 -4.77,-0.79 -8.74,-0.79 -13.44,0l-14.14 34.62c3.92,-1.59 8.64,-2.4 12.59,-0.8l0.04 0zm20.42 -44.04c4.73,1.55 9.45,0.77 13.41,0l18.06 -29.9c-4.7,0.78 -9.42,0.78 -13.37,-1.57 -3.9,-1.6 -8.64,-2.4 -13.36,-1.6l-18.97 32.23c5.53,-1.51 9.49,-0.79 14.14,0.78l0.09 0.06zm25.2 -40.95c-3.97,-2.34 -8.74,-3.12 -12.64,-2.34l22.81 -29.9c4.74,0 8.67,0.79 12.59,3.14 3.9,2.4 8.67,4 12.64,3.21l-22.06 27.52c-4.74,0 -9.46,0 -13.37,-1.5l0.03 -0.12zm29.84 -37.68c-3.17,-3.17 -7.89,-3.92 -12.59,-3.92l25.94 -26.79c4.74,0 8.66,2.41 12.59,4.73 3.17,3.22 7.82,4.81 12.59,4.81l-25.18 24.38c-4.71,0 -9.44,-0.82 -13.36,-3.17l0 -0.05zm484.75 -50.43c2.35,-3.92 3.13,-8.62 2.35,-12.56l29.85 22.78c0,4.77 -0.75,8.67 -3.12,12.66 -2.35,3.9 -3.92,8.6 -3.13,12.54l-27.55 -22.03c0,-4.7 0,-9.42 1.6,-13.37l0 -0.02zm37.76 29.95c-2.41,3.92 -3.17,8.67 -3.17,13.39l24.38 25.12c0,-4.73 1.5,-8.67 4.67,-12.59 2.4,-3.92 4.72,-7.88 4.72,-12.59l-26.8 -26c0.85,4.72 -0.75,9.44 -3.9,12.58l0.09 0.09zm32.99 35.38c-3.11,3.92 -4.67,7.89 -4.67,12.58l20.47 28.3c0.75,-4.69 3.14,-8.61 6.26,-11.74 3.17,-3.15 5.52,-7.1 6.32,-11.82l-22.88 -29.12c0,4.74 -1.5,8.67 -5.41,11.81l-0.09 0zm28.38 39.34c-3.15,3.13 -5.54,7.08 -6.32,11.8l16.56 30.62c1.51,-4.74 3.92,-7.84 7.82,-11.02 3.92,-2.32 6.33,-6.32 7.89,-10.99l-18.89 -32.21c-0.78,5.47 -3.13,8.61 -7.09,11.74l0.03 0.05zm23.58 42.48c-3.92,3.17 -6.32,6.33 -7.82,11.02l12.54 33.05c1.57,-3.9 4.74,-7.89 9.45,-9.45 3.92,-2.34 7.07,-5.5 9.43,-9.44l-14.14 -34.62c-2.35,3.9 -5.52,7.1 -9.46,9.44zm17.28 44.86c-3.92,2.35 -7.04,5.52 -9.39,9.42l7.82 33.9c2.42,-3.9 6.32,-7.07 10.24,-7.82 3.9,-1.63 7.89,-4.75 10.24,-8.74l-9.42 -36.13c-2.41,4.7 -5.52,7.83 -9.45,9.42l-0.03 -0.07zm11.07 47.21c-3.9,1.57 -7.83,4.69 -10.22,8.64l3.9 34.62c3.17,-3.92 7.1,-6.32 11.05,-7.07 3.9,-0.79 7.83,-3.92 11.02,-7.09l-4.73 -37.02c-3.15,3.97 -6.32,7.14 -11.02,7.92zm4.73 47.98c-4.73,1.57 -8.67,3.92 -11.81,7.09l-0.78 35.39c3.13,-3.09 7.82,-4.65 11.81,-5.41 4.69,-0.82 8.64,-2.42 11.81,-5.53l0 -36.97c-2.42,3.12 -6.34,5.5 -11.02,5.5l0 -0.07zm-0.78 48.06c-4.74,0.78 -8.67,2.34 -12.59,5.5l-5.5 34.62c3.92,-2.42 7.83,-3.92 12.59,-3.92 4.72,0 8.64,-1.58 12.58,-3.97l4.73 -36.97c-3.17,3.92 -7.89,5.52 -11.81,4.74zm-7.89 47.98c-4.71,0 -9.42,1.57 -12.59,3.92l-10.22 33.83c3.9,-2.35 8.65,-3.13 13.39,-1.56 4.71,0.78 8.64,0 13.36,-2.35l9.45 -36.19c-4.66,2.35 -8.61,3.13 -13.33,2.35l-0.06 0zm-13.34 46.43c-4.72,-0.78 -9.45,0 -13.36,2.35l-14.96 31.45c4,-1.56 8.72,-1.56 13.45,0 4.69,0.82 8.64,0.82 13.36,0l14.16 -34.62c-3.92,1.6 -8.61,2.42 -12.56,0.82l-0.09 0zm-20.38 44.05c-4.72,-1.57 -9.44,-0.78 -13.39,0l-18.06 30.7c4.7,-0.82 9.42,-0.82 13.37,1.56 3.91,1.57 8.64,2.35 13.36,1.57l18.88 -32.22c-5.5,0.75 -9.42,0 -14.16,-1.62zm-25.19 40.94c-3.91,-1.6 -8.64,-2.41 -13.36,-1.6l-22.03 27.55c4.72,-0.82 9.44,0.78 12.64,3.13 3.92,2.29 8.61,3.09 12.55,3.09l22.78 -29.88c-3.92,1.6 -8.64,0 -12.59,-2.35l0 0.06zm-29.89 37.73c-3.92,-2.42 -8.64,-3.17 -13.37,-3.17l-25.99 24.38c4.71,0 8.64,1.6 12.57,4.73 3.92,2.29 7.83,4.66 12.59,4.66l25.95 -26.78c-3.92,0.8 -8.64,-0.75 -11.8,-3.92l0.06 0.1zm-35.44 33.02c-3.92,-3.2 -7.82,-4.75 -12.59,-4.75l-28.28 20.46c4.62,0.79 8.57,3.14 11.72,6.32 3.14,3.1 7.09,5.49 11.75,6.27l29.96 -22.83c-5.52,0 -9.45,-1.55 -12.65,-5.5l0.09 0.03zm-185.69 46.4c0.79,4.72 2.35,8.67 5.52,12.58 9.46,0.78 18.88,3.91 26.8,11.02 0,-5.5 2.3,-11.02 6.26,-14.14 2.41,-2.41 3.92,-4.73 4.75,-7.9 -10.97,-7.83 -23.6,-12.58 -37.74,-12.58l-9.45 0c2.35,3.17 3.9,7.07 3.9,11.02l-0.03 0zm146.35 -18.06c-3.14,-3.2 -7.05,-5.55 -11.74,-6.33l-30.72 16.56c4.7,1.51 7.84,3.92 10.99,7.84 2.41,3.9 6.32,6.32 11.02,7.82l32.33 -18.85c-5.5,-0.78 -8.67,-3.16 -11.8,-7.07l-0.08 0.03zm-42.43 23.6c-3.15,-3.98 -6.32,-6.32 -11.01,-7.89l-29.9 12.58c4.75,6.33 7.91,14.16 10.24,21.98l40.15 -18.06c-3.9,-1.56 -7.07,-4.71 -9.42,-8.64l-0.06 0.03z"/>
    </g>
    <path class="fil0" d="M426.96 629.47l-1.52 14.44 -48.26 -5.08 -1.13 10.52 42.51 4.45 -1.33 12.89 -42.46 -4.47 -1.02 9.34 48.25 5.11 -1.5 14.4 -68.43 -7.2 6.46 -61.6 68.44 7.2zm32.97 35.81c0.36,1.33 1.25,2.51 2.49,3.2 1.21,0.71 2.65,0.91 4,0.53l25.73 -6.9c1.85,-0.49 3.29,-1.94 3.73,-3.78 0.49,-1.82 -0.05,-3.78 -1.38,-5.1 -1.36,-1.38 -3.36,-1.83 -5.16,-1.3l-36.41 9.71c-7.73,2.09 -15.68,-2.51 -17.73,-10.24l-2.04 -7.59c-2.06,-7.72 2.55,-15.68 10.25,-17.75l47.18 -12.64c7.73,-2.07 15.68,2.51 17.73,10.22l1.4 5.15 -19.61 5.23c-0.75,-2.84 -3.67,-4.48 -6.48,-3.74l-25.78 6.9c-2.81,0.77 -4.47,3.67 -3.75,6.51 0.79,2.81 3.67,4.49 6.52,3.73l36.47 -9.75c3.69,-1 7.68,-0.49 10.96,1.43 3.34,1.91 5.78,5.08 6.77,8.81l2.02 7.59c0.97,3.72 0.47,7.67 -1.44,10.97 -1.91,3.32 -5.03,5.79 -8.8,6.76l-47.18 12.65c-7.73,2.06 -15.67,-2.52 -17.76,-10.24l-1.35 -5.13 19.6 -5.24zm-123.38 1.49l8.39 -20.74 -37.63 -15.18 -4.85 12 14.15 5.7 4.67 1.88 -1.76 4.36c-0.48,1.19 -1.39,2.1 -2.55,2.57 -1.11,0.5 -2.42,0.5 -3.58,0.05l-28.91 -11.67c-2.44,-1 -3.56,-3.75 -2.62,-6.13l8.85 -21.81c0.44,-1.19 1.39,-2.1 2.51,-2.6 1.16,-0.49 2.43,-0.49 3.62,-0.03l28.9 11.7c1.14,0.45 2.09,1.36 2.56,2.52 0.52,1.16 0.52,2.45 0.06,3.59l18.79 7.6 1.74 -4.36c3.04,-7.43 -0.56,-15.87 -7.98,-18.9l-48.4 -19.52c-7.39,-3.01 -15.83,0.58 -18.86,8l-12.31 30.59c-3.04,7.38 0.55,15.83 7.97,18.83l48.4 19.55c7.45,2.99 15.87,-0.6 18.86,-8.02zm249.32 -85.73l-17.03 11.05c-1.44,-2.2 -4.33,-2.84 -6.55,-1.37l-26.12 16.95c-2.2,1.41 -2.81,4.31 -1.41,6.52l12.87 19.72c0.67,1.07 1.73,1.8 2.97,2.04 1.21,0.27 2.49,0.03 3.54,-0.66l26.12 -16.97c2.18,-1.44 2.81,-4.34 1.38,-6.52l-2.54 -3.97 17.03 -11 5.1 7.9c4.34,6.7 2.44,15.67 -4.25,20.03l-43.78 28.43c-3.22,2.1 -7.17,2.82 -10.93,2.01 -3.75,-0.79 -7.01,-3.04 -9.13,-6.29l-17.92 -27.61c-4.39,-6.74 -2.49,-15.68 4.24,-20.05l43.78 -28.44c6.71,-4.34 15.68,-2.46 20.07,4.28l2.57 3.95zm-339.57 -20.13l-64.03 25.67 14.93 13.45 14.99 -6.01 24.1 21.71 -4.38 15.51 14.96 13.5 18.83 -66.37 -19.4 -17.47zm387.21 30.45l-43.89 -43.9 -12.93 13.06 44.09 43.7 12.78 -12.83 -0.05 -0.03zm-393.26 10.4l-14.55 -13.15 20.57 -8.23 -6.02 21.38z"/>
    <path class="fil2" d="M131.43 909.98c-16.98,2.07 -26.72,5.25 -30.78,20.62 -3.24,12.26 -1.9,35.52 -1.9,49.5 -0.01,16.98 2.63,30.55 14.64,36.77 11.92,6.17 51.7,7.64 66.14,-1.39 17.42,-10.9 13.22,-42.39 13.22,-64.4 0,-17.39 -2.7,-30.82 -15.01,-36.8 -10.2,-4.96 -33.87,-5.81 -46.31,-4.3zm-110.28 110.58c0.9,-6.46 -1.01,-31.62 0.49,-34.88 2.16,-2.51 38.84,2.71 53.45,-4.18 6.52,-3.08 10.21,-8.18 12.03,-16.52 1.51,-6.91 1.99,-20 0.98,-27.33 -2.64,-19.16 -10.18,-25.98 -30.5,-27.03 -6.69,-0.35 -54.57,-1.17 -57.29,0.23 -0.62,6.09 -0.09,84.47 -0.09,97.81 0,14.26 -1.17,12.06 4.39,11.99 5.4,-0.08 11.24,0.25 16.56,-0.09zm364.99 -0.19c2.48,0.65 17.67,0.4 20.96,0.2l-1.55 -90.91c1.99,1 5.37,8.59 6.61,10.91 2.12,4 3.82,7.61 5.85,11.67l29.16 56.97c1.72,3.46 4.18,8.33 5.95,11.36l35.08 0.08 0.15 -110.19c-3.38,-0.21 -18.96,-0.64 -21.01,0.4 -0.55,5.46 -0.13,16.6 0.27,22.27 0.93,13.16 -0.1,34.36 0.79,46.06 0.32,4.19 0.97,19.38 0.22,22.77 -0.21,-0.7 -2.09,-3.49 -2.82,-4.95 -5.4,-10.78 -43.71,-85.76 -44.82,-86.37 -2.89,-0.6 -32.6,-0.63 -34.82,0.07l-0.02 109.66zm207.41 0.25l21.7 0.01 6.9 -20.75 47.62 0.03c1.16,3.44 5.98,18.76 7.32,20.6l21.22 0.14c-0.19,-4.24 -31.06,-90.62 -36.3,-107.94 -0.68,-2.25 -0.33,-2.16 -2.9,-2.16l-27.18 0c-3.06,0 -2.02,-0.48 -3.93,5.27l-16.27 48.69c-2.16,6.48 -18.17,53.76 -18.18,56.11zm-300.32 0.02l75.95 -0.01c0.74,-2.79 0.43,-14.7 0.24,-17.97 -9.53,-1.5 -50.09,1.38 -55.04,-0.7 -0.21,-3.63 -0.47,-26.25 0.21,-28.27 3.49,-1.52 43.22,0.46 51.58,-0.53l-0.01 -16.95c-8.13,-0.95 -48.39,0.91 -51.58,-0.53 -0.54,-1.61 -0.54,-25.09 0,-26.61 4.52,-1.45 45.45,0.82 54.39,-0.51l-0.09 -17.97 -75.57 -0.2 -0.09 110.25zm211.14 -92.08c10.57,1.52 51.03,-1.2 58.04,0.47l-44.98 54.48c-1.02,1.23 -1.37,1.89 -2.22,2.85 -1,1.12 -1.21,1.24 -2.15,2.45l-10.77 13.18c-0.88,1.62 -0.85,15.99 -0.34,18.1l2.37 0.58c0.77,0.04 1.96,-0.03 2.79,-0.04l38.69 -0c13.93,0 30.54,0.82 44.14,-0.08l0.12 -13.74c0.01,-0.93 0.19,-3.74 -0.59,-4.25 -2.25,-1.48 -53.22,1.24 -61.14,-0.38l60.29 -72.75c1.15,-2.22 0.6,-15.55 0.47,-18.96l-84.67 -0.08 -0.05 18.17zm-367.71 -0.3c-10.73,1.45 -15.43,3.81 -16.26,15.07 -0.74,10.16 -0.44,20.86 -0.44,31.24 -0,8.3 -0.81,21.17 5.88,25.68 5.29,3.57 21.39,3.72 28.69,2.72 11.05,-1.51 14.53,-4.21 16.44,-14.87 1.39,-7.75 0.55,-22.98 0.55,-31.5 0,-9.59 0.72,-21.47 -6.27,-25.71 -6.02,-3.65 -20.81,-3.69 -28.59,-2.64zm62.01 -14.95l0.05 14.97c3.85,1.49 25.83,-0.21 32.16,0.56 0.92,2.34 0.38,58.3 0.38,68.76 0,6.47 -0.62,16.87 0.12,22.86l20.83 0.03 0.13 -91.5c6.36,-1.12 27.97,0.69 32.67,-0.55l-0.07 -17.67c-6.68,-1.18 -71,-0.39 -83.21,-0.38 -3.28,0 -3.06,-0.36 -3.06,2.93zm-177.32 15.84l-0.06 37.4c2.83,0.91 28.37,0.55 32.55,0.16 4.87,-0.47 9.01,-1.46 11.16,-4.96 1.76,-2.86 2.52,-10.28 2.25,-14.36 -0.8,-12.12 -0.93,-17.74 -14.18,-18.57 -3.72,-0.23 -30.09,-0.56 -31.72,0.33zm606.13 54.09c10.55,0.63 25.99,0.28 37.17,0.24 -0.36,-3.12 -11.81,-36.05 -13.8,-42.12 -0.75,-2.29 -1.57,-4.68 -2.3,-6.9 -0.41,-1.22 -0.74,-2.21 -1.14,-3.46 -0.17,-0.53 -0.36,-1.21 -0.57,-1.72 -0.16,-0.41 -0.25,-0.63 -0.47,-0.99 -0.57,-0.93 -0.09,-0.31 -0.7,-0.9l-9.14 27.81c-1.53,4.6 -3.08,9.25 -4.6,13.82 -1.1,3.32 -4.18,11.25 -4.43,14.22zm140.18 -39.99c0.85,1.47 6.13,6.83 7.52,7.36 1.14,-0.03 13.3,-13.99 14.09,-14.93l7.14 -7.57c1.13,-1.27 5.29,-6.66 7.01,-7.1l0.17 99.58 9.82 0.05c2.81,0 2.67,-0.01 2.67,-2.76l0 -104.56c0,-3.49 0.41,-2.78 -7.27,-2.77 -2.17,0 -8.9,-0.29 -10.56,0.07 -1.65,0.35 -3.27,3.18 -5.32,5.25l-12.37 13.42c-0.93,1.09 -1.67,1.55 -2.84,2.67l-10.05 11.3z"/>
   </g>
  </g>
 </g>
</svg>
