<?xml version="1.0" encoding="UTF-8"?>
<!DOCTYPE svg PUBLIC "-//W3C//DTD SVG 1.1//EN" "http://www.w3.org/Graphics/SVG/1.1/DTD/svg11.dtd">
<!-- Creator: CorelDRAW -->
<svg xmlns="http://www.w3.org/2000/svg" xml:space="preserve" width="5.8208mm" height="5.8208mm" version="1.1" style="shape-rendering:geometricPrecision; text-rendering:geometricPrecision; image-rendering:optimizeQuality; fill-rule:evenodd; clip-rule:evenodd"
viewBox="0 0 27.95 27.95"
 xmlns:xlink="http://www.w3.org/1999/xlink"
 xmlns:xodm="http://www.corel.com/coreldraw/odm/2003">
 <defs>
  <style type="text/css">
   <![CDATA[
    .fil0 {fill:#FEFEFE;fill-rule:nonzero}
   ]]>
  </style>
 </defs>
 <g id="Layer_x0020_1">
  <metadata id="CorelCorpID_0Corel-Layer"/>
  <path class="fil0" d="M13.97 17.79c1.06,0 1.96,-0.37 2.7,-1.11 0.74,-0.74 1.11,-1.64 1.11,-2.7 0,-1.06 -0.37,-1.96 -1.11,-2.7 -0.74,-0.74 -1.64,-1.11 -2.7,-1.11 -1.06,0 -1.96,0.37 -2.7,1.11 -0.74,0.74 -1.11,1.64 -1.11,2.7 0,1.06 0.37,1.96 1.11,2.7 0.74,0.74 1.64,1.11 2.7,1.11zm0 2.54c-1.76,0 -3.26,-0.62 -4.49,-1.86 -1.24,-1.24 -1.86,-2.74 -1.86,-4.49 0,-1.76 0.62,-3.26 1.86,-4.49 1.24,-1.24 2.74,-1.86 4.49,-1.86 1.76,0 3.26,0.62 4.49,1.86 1.24,1.24 1.86,2.74 1.86,4.49 0,1.76 -0.62,3.26 -1.86,4.49 -1.24,1.24 -2.74,1.86 -4.49,1.86zm-12.7 -5.08c-0.36,0 -0.66,-0.12 -0.91,-0.37 -0.24,-0.24 -0.37,-0.54 -0.37,-0.91 0,-0.36 0.12,-0.66 0.37,-0.91 0.24,-0.24 0.54,-0.37 0.91,-0.37l2.54 0c0.36,0 0.66,0.12 0.91,0.37 0.24,0.24 0.37,0.54 0.37,0.91 0,0.36 -0.12,0.66 -0.37,0.91 -0.24,0.24 -0.54,0.37 -0.91,0.37l-2.54 0zm22.87 0c-0.36,0 -0.66,-0.12 -0.91,-0.37 -0.24,-0.24 -0.37,-0.54 -0.37,-0.91 0,-0.36 0.12,-0.66 0.37,-0.91 0.24,-0.24 0.54,-0.37 0.91,-0.37l2.54 0c0.36,0 0.66,0.12 0.91,0.37 0.24,0.24 0.37,0.54 0.37,0.91 0,0.36 -0.12,0.66 -0.37,0.91 -0.24,0.24 -0.54,0.37 -0.91,0.37l-2.54 0zm-10.16 -10.16c-0.36,0 -0.66,-0.12 -0.91,-0.37 -0.24,-0.24 -0.37,-0.54 -0.37,-0.91l0 -2.54c0,-0.36 0.12,-0.66 0.37,-0.9 0.24,-0.24 0.54,-0.37 0.91,-0.37 0.36,0 0.66,0.12 0.91,0.37 0.24,0.24 0.37,0.54 0.37,0.91l0 2.54c0,0.36 -0.12,0.66 -0.37,0.9 -0.24,0.24 -0.54,0.37 -0.91,0.37zm0 22.87c-0.36,0 -0.66,-0.12 -0.91,-0.37 -0.24,-0.24 -0.37,-0.54 -0.37,-0.91l0 -2.54c0,-0.36 0.12,-0.66 0.37,-0.9 0.24,-0.24 0.54,-0.37 0.91,-0.37 0.36,0 0.66,0.12 0.91,0.37 0.24,0.24 0.37,0.54 0.37,0.91l0 2.54c0,0.36 -0.12,0.66 -0.37,0.9 -0.24,0.24 -0.54,0.37 -0.91,0.37zm-8.07 -20.26l-1.37 -1.33c-0.25,-0.23 -0.38,-0.53 -0.37,-0.89 0.01,-0.36 0.13,-0.67 0.37,-0.92 0.25,-0.25 0.56,-0.38 0.92,-0.38 0.36,0 0.66,0.13 0.89,0.38l1.33 1.37c0.23,0.25 0.35,0.55 0.35,0.89 0,0.34 -0.12,0.64 -0.35,0.89 -0.23,0.25 -0.52,0.38 -0.87,0.37 -0.35,-0.01 -0.65,-0.13 -0.91,-0.37zm15.69 15.72l-1.33 -1.37c-0.23,-0.25 -0.35,-0.56 -0.35,-0.91 0,-0.35 0.12,-0.64 0.35,-0.87 0.23,-0.25 0.52,-0.38 0.87,-0.37 0.35,0.01 0.65,0.13 0.91,0.37l1.37 1.33c0.25,0.23 0.38,0.53 0.37,0.89 -0.01,0.36 -0.13,0.67 -0.37,0.92 -0.25,0.25 -0.56,0.38 -0.92,0.38 -0.36,0 -0.66,-0.13 -0.89,-0.38zm-1.33 -15.72c-0.25,-0.23 -0.38,-0.52 -0.37,-0.87 0.01,-0.35 0.13,-0.65 0.37,-0.91l1.33 -1.37c0.23,-0.25 0.53,-0.38 0.89,-0.37 0.36,0.01 0.67,0.13 0.92,0.37 0.25,0.25 0.38,0.56 0.38,0.92 0,0.36 -0.13,0.66 -0.38,0.89l-1.37 1.33c-0.25,0.23 -0.55,0.35 -0.89,0.35 -0.34,0 -0.64,-0.12 -0.89,-0.35zm-15.72 15.72c-0.25,-0.25 -0.38,-0.56 -0.38,-0.92 0,-0.36 0.13,-0.66 0.38,-0.89l1.37 -1.33c0.25,-0.23 0.56,-0.35 0.91,-0.35 0.35,0 0.64,0.12 0.87,0.35 0.25,0.23 0.38,0.52 0.37,0.87 -0.01,0.35 -0.13,0.65 -0.37,0.91l-1.33 1.37c-0.23,0.25 -0.53,0.38 -0.89,0.37 -0.36,-0.01 -0.67,-0.13 -0.92,-0.37zm9.43 -9.43z"/>
 </g>
</svg>
